<svg width="57" height="43" fill="none" xmlns="http://www.w3.org/2000/svg"><g filter="url('#filter0_dd_1_6461')"><rect x="8.729" y="5" width="39.957" height="25.741" rx="4.61" fill="#fff"/><rect x="8.633" y="4.904" width="40.149" height="25.933" rx="4.706" stroke="#D6DCE5" stroke-width=".192"/><path d="M21.653 14.499c.266-.333.447-.781.4-1.239-.39.02-.867.258-1.143.591-.247.286-.466.753-.41 1.191.439.038.876-.219 1.153-.543ZM22.047 15.128c-.636-.038-1.177.36-1.48.36-.304 0-.77-.341-1.273-.332-.655.01-1.262.38-1.595.969-.683 1.178-.18 2.925.485 3.885.322.475.711.997 1.224.979.484-.02.674-.314 1.263-.314.588 0 .76.314 1.272.304.532-.01.864-.475 1.187-.95.37-.541.522-1.064.531-1.092-.01-.01-1.025-.4-1.034-1.568-.01-.978.797-1.443.835-1.472-.456-.674-1.168-.75-1.415-.77ZM27.587 13.804c1.382 0 2.345.953 2.345 2.34 0 1.393-.983 2.351-2.38 2.351H26.02v2.435h-1.106v-7.126h2.672Zm-1.566 3.763h1.27c.962 0 1.51-.519 1.51-1.418 0-.898-.548-1.412-1.506-1.412h-1.274v2.83ZM30.221 19.453c0-.909.696-1.467 1.93-1.536l1.423-.084v-.4c0-.578-.39-.923-1.042-.923-.617 0-1.002.296-1.096.76h-1.008c.06-.938.86-1.63 2.144-1.63 1.259 0 2.064.667 2.064 1.71v3.58h-1.023v-.855h-.024c-.301.578-.958.943-1.64.943-1.017 0-1.728-.632-1.728-1.565Zm3.353-.47v-.409l-1.279.079c-.637.045-.998.326-.998.77 0 .455.376.751.949.751.745 0 1.328-.514 1.328-1.19ZM35.6 22.84v-.863c.08.02.257.02.346.02.494 0 .76-.208.924-.741 0-.01.094-.317.094-.322l-1.877-5.2h1.156l1.313 4.228h.02l1.314-4.227h1.126L38.07 21.2c-.444 1.26-.958 1.664-2.035 1.664-.089 0-.355-.01-.434-.024Z" fill="#000008"/></g><defs><filter id="filter0_dd_1_6461" x=".853" y=".966" width="55.709" height="41.494" filterUnits="userSpaceOnUse" color-interpolation-filters="sRGB"><feFlood flood-opacity="0" result="BackgroundImageFix"/><feColorMatrix in="SourceAlpha" values="0 0 0 0 0 0 0 0 0 0 0 0 0 0 0 0 0 0 127 0" result="hardAlpha"/><feOffset dy=".384"/><feGaussianBlur stdDeviation="1.921"/><feColorMatrix values="0 0 0 0 0.717647 0 0 0 0 0.717647 0 0 0 0 0.717647 0 0 0 0.08 0"/><feBlend in2="BackgroundImageFix" result="effect1_dropShadow_1_6461"/><feColorMatrix in="SourceAlpha" values="0 0 0 0 0 0 0 0 0 0 0 0 0 0 0 0 0 0 127 0" result="hardAlpha"/><feOffset dy="3.842"/><feGaussianBlur stdDeviation="3.842"/><feColorMatrix values="0 0 0 0 0.717647 0 0 0 0 0.717647 0 0 0 0 0.717647 0 0 0 0.08 0"/><feBlend in2="effect1_dropShadow_1_6461" result="effect2_dropShadow_1_6461"/><feBlend in="SourceGraphic" in2="effect2_dropShadow_1_6461" result="shape"/></filter></defs></svg>