<svg width="56" height="43" fill="none" xmlns="http://www.w3.org/2000/svg"><g filter="url('#filter0_dd_1_6463')"><rect x="7.972" y="5" width="39.957" height="25.741" rx="4.61" fill="#fff"/><rect x="7.876" y="4.904" width="40.149" height="25.933" rx="4.706" stroke="#D6DCE5" stroke-width=".192"/><path d="M27.082 20.956h-.899v-6.993h2.383c.604 0 1.118.201 1.54.604.43.402.645.894.645 1.474 0 .594-.215 1.086-.645 1.484-.417.398-.932.594-1.54.594h-1.484v2.837Zm0-6.132v2.439h1.502a1.2 1.2 0 0 0 .89-.36c.238-.24.36-.53.36-.857 0-.323-.122-.609-.36-.848a1.166 1.166 0 0 0-.89-.37h-1.502v-.004ZM33.101 16.013c.665 0 1.19.178 1.573.534.384.355.576.842.576 1.46v2.949h-.857v-.665h-.037c-.37.548-.866.82-1.484.82-.53 0-.97-.155-1.325-.469a1.495 1.495 0 0 1-.533-1.17c0-.496.187-.89.561-1.18.375-.295.876-.44 1.498-.44.534 0 .974.099 1.315.295v-.206a1.02 1.02 0 0 0-.37-.795 1.269 1.269 0 0 0-.87-.328c-.5 0-.899.21-1.189.637l-.791-.497c.435-.631 1.081-.945 1.933-.945Zm-1.16 3.473c0 .234.098.43.299.585a1.1 1.1 0 0 0 .697.234c.38 0 .717-.14 1.011-.421.295-.28.445-.609.445-.988-.28-.22-.67-.332-1.17-.332-.365 0-.67.089-.913.262-.248.183-.37.403-.37.66ZM40.136 16.167l-2.995 6.89h-.927l1.114-2.41-1.975-4.48h.978l1.423 3.436h.019l1.385-3.436h.978Z" fill="#3C4043"/><path d="M23.507 17.553c0-.293-.026-.573-.075-.843h-3.767v1.544l2.17.001a1.858 1.858 0 0 1-.805 1.244v1.002h1.291c.754-.698 1.186-1.73 1.186-2.948Z" fill="#4285F4"/><path d="M21.03 19.5c-.36.242-.822.384-1.364.384-1.046 0-1.934-.705-2.251-1.656h-1.332v1.034a4.01 4.01 0 0 0 3.583 2.208c1.083 0 1.993-.356 2.655-.97l-1.291-1Z" fill="#34A853"/><path d="M17.29 17.462c0-.267.044-.525.125-.768v-1.033h-1.333a3.989 3.989 0 0 0-.426 1.8c0 .648.154 1.26.426 1.801l1.333-1.033a2.418 2.418 0 0 1-.126-.767Z" fill="#FABB05"/><path d="M19.666 15.04c.591 0 1.12.203 1.539.6l1.144-1.143a3.852 3.852 0 0 0-2.683-1.044 4.01 4.01 0 0 0-3.584 2.208l1.333 1.033c.317-.95 1.205-1.655 2.251-1.655Z" fill="#E94235"/></g><defs><filter id="filter0_dd_1_6463" x=".096" y=".966" width="55.709" height="41.494" filterUnits="userSpaceOnUse" color-interpolation-filters="sRGB"><feFlood flood-opacity="0" result="BackgroundImageFix"/><feColorMatrix in="SourceAlpha" values="0 0 0 0 0 0 0 0 0 0 0 0 0 0 0 0 0 0 127 0" result="hardAlpha"/><feOffset dy=".384"/><feGaussianBlur stdDeviation="1.921"/><feColorMatrix values="0 0 0 0 0.717647 0 0 0 0 0.717647 0 0 0 0 0.717647 0 0 0 0.08 0"/><feBlend in2="BackgroundImageFix" result="effect1_dropShadow_1_6463"/><feColorMatrix in="SourceAlpha" values="0 0 0 0 0 0 0 0 0 0 0 0 0 0 0 0 0 0 127 0" result="hardAlpha"/><feOffset dy="3.842"/><feGaussianBlur stdDeviation="3.842"/><feColorMatrix values="0 0 0 0 0.717647 0 0 0 0 0.717647 0 0 0 0 0.717647 0 0 0 0.08 0"/><feBlend in2="effect1_dropShadow_1_6463" result="effect2_dropShadow_1_6463"/><feBlend in="SourceGraphic" in2="effect2_dropShadow_1_6463" result="shape"/></filter></defs></svg>