<svg width="57" height="43" fill="none" xmlns="http://www.w3.org/2000/svg"><g filter="url('#filter0_dd_1_6457')"><rect x="8.243" y="5" width="39.957" height="25.741" rx="4.61" fill="#fff"/><rect x="8.147" y="4.904" width="40.149" height="25.933" rx="4.706" stroke="#D6DCE5" stroke-width=".192"/><path d="M31.092 12.585h-5.883v10.572h5.883V12.585Z" fill="#FF5F00"/><path d="M25.582 17.87a6.71 6.71 0 0 1 2.568-5.285 6.724 6.724 0 1 0 0 10.572 6.711 6.711 0 0 1-2.568-5.286Z" fill="#EB001B"/><path d="M39.028 17.87a6.724 6.724 0 0 1-10.878 5.287 6.726 6.726 0 0 0 0-10.572 6.723 6.723 0 0 1 10.878 5.286ZM38.387 22.037v-.217h.087v-.044h-.222v.044h.087v.217h.048Zm.431 0v-.261h-.068l-.078.18-.079-.18h-.068v.26h.048v-.196l.074.17h.05l.073-.17v.197h.048Z" fill="#F79E1B"/></g><defs><filter id="filter0_dd_1_6457" x=".367" y=".966" width="55.709" height="41.494" filterUnits="userSpaceOnUse" color-interpolation-filters="sRGB"><feFlood flood-opacity="0" result="BackgroundImageFix"/><feColorMatrix in="SourceAlpha" values="0 0 0 0 0 0 0 0 0 0 0 0 0 0 0 0 0 0 127 0" result="hardAlpha"/><feOffset dy=".384"/><feGaussianBlur stdDeviation="1.921"/><feColorMatrix values="0 0 0 0 0.717647 0 0 0 0 0.717647 0 0 0 0 0.717647 0 0 0 0.08 0"/><feBlend in2="BackgroundImageFix" result="effect1_dropShadow_1_6457"/><feColorMatrix in="SourceAlpha" values="0 0 0 0 0 0 0 0 0 0 0 0 0 0 0 0 0 0 127 0" result="hardAlpha"/><feOffset dy="3.842"/><feGaussianBlur stdDeviation="3.842"/><feColorMatrix values="0 0 0 0 0.717647 0 0 0 0 0.717647 0 0 0 0 0.717647 0 0 0 0.08 0"/><feBlend in2="effect1_dropShadow_1_6457" result="effect2_dropShadow_1_6457"/><feBlend in="SourceGraphic" in2="effect2_dropShadow_1_6457" result="shape"/></filter></defs></svg>