<svg width="57" height="43" fill="none" xmlns="http://www.w3.org/2000/svg"><g filter="url('#filter0_dd_1_6459')"><rect x="8.486" y="5" width="39.957" height="25.741" rx="4.61" fill="#fff"/><rect x="8.39" y="4.904" width="40.149" height="25.933" rx="4.706" stroke="#D6DCE5" stroke-width=".192"/><path fill-rule="evenodd" clip-rule="evenodd" d="M17.227 14.126h-2.304a.32.32 0 0 0-.316.27l-.932 5.906a.192.192 0 0 0 .19.222h1.1a.32.32 0 0 0 .316-.27l.251-1.594a.32.32 0 0 1 .316-.27h.73c1.517 0 2.393-.734 2.622-2.19.103-.636.004-1.136-.294-1.486-.328-.385-.908-.588-1.68-.588Zm.265 2.157c-.126.826-.757.826-1.368.826h-.347l.243-1.543a.192.192 0 0 1 .19-.162h.16c.415 0 .808 0 1.01.237.122.141.159.351.113.642Zm6.62-.027H23.01a.192.192 0 0 0-.19.162l-.049.309-.077-.112c-.239-.347-.771-.462-1.303-.462-1.219 0-2.26.923-2.463 2.218-.105.646.045 1.264.411 1.694.336.396.817.561 1.39.561.982 0 1.527-.631 1.527-.631l-.05.306a.192.192 0 0 0 .19.223h.993a.32.32 0 0 0 .317-.27l.596-3.776a.191.191 0 0 0-.19-.222Zm-1.537 2.147a1.23 1.23 0 0 1-1.244 1.053c-.32 0-.577-.102-.741-.297-.163-.193-.225-.469-.173-.775.1-.625.608-1.062 1.236-1.062.313 0 .568.104.736.3.168.2.234.476.186.781Zm6.305-2.147h1.108c.155 0 .246.174.158.302l-3.687 5.321a.32.32 0 0 1-.263.137h-1.108a.192.192 0 0 1-.156-.303l1.148-1.62-1.221-3.583a.192.192 0 0 1 .182-.254h1.09c.14 0 .266.093.307.229l.648 2.163 1.529-2.251a.32.32 0 0 1 .265-.14Z" fill="#253B80"/><path fill-rule="evenodd" clip-rule="evenodd" d="m40.9 20.302.945-6.015a.193.193 0 0 1 .19-.162h1.064c.117 0 .207.105.189.222l-.932 5.906a.32.32 0 0 1-.317.27h-.95a.192.192 0 0 1-.19-.221Zm-7.241-6.177h-2.304a.32.32 0 0 0-.316.27l-.932 5.907a.192.192 0 0 0 .19.221h1.182c.11 0 .204-.08.22-.189l.265-1.674a.32.32 0 0 1 .316-.27h.73c1.517 0 2.393-.735 2.622-2.19.103-.636.004-1.137-.294-1.487-.328-.384-.908-.588-1.68-.588Zm.266 2.157c-.126.827-.758.827-1.369.827h-.347l.244-1.544a.191.191 0 0 1 .19-.162h.159c.416 0 .809 0 1.011.237.121.142.158.352.112.642Zm6.62-.026h-1.103a.191.191 0 0 0-.19.162l-.048.308-.078-.111c-.238-.347-.77-.463-1.302-.463-1.22 0-2.26.923-2.463 2.218-.105.646.044 1.264.41 1.695.338.396.818.56 1.39.56a2.11 2.11 0 0 0 1.527-.63l-.049.306a.192.192 0 0 0 .19.222h.993a.32.32 0 0 0 .316-.27l.597-3.776a.192.192 0 0 0-.19-.221Zm-1.538 2.147a1.229 1.229 0 0 1-1.245 1.053c-.32 0-.576-.103-.74-.298-.164-.193-.225-.468-.174-.775.1-.624.608-1.061 1.237-1.061.313 0 .567.104.735.3.169.199.236.475.187.78Z" fill="#179BD7"/></g><defs><filter id="filter0_dd_1_6459" x=".61" y=".966" width="55.709" height="41.494" filterUnits="userSpaceOnUse" color-interpolation-filters="sRGB"><feFlood flood-opacity="0" result="BackgroundImageFix"/><feColorMatrix in="SourceAlpha" values="0 0 0 0 0 0 0 0 0 0 0 0 0 0 0 0 0 0 127 0" result="hardAlpha"/><feOffset dy=".384"/><feGaussianBlur stdDeviation="1.921"/><feColorMatrix values="0 0 0 0 0.717647 0 0 0 0 0.717647 0 0 0 0 0.717647 0 0 0 0.08 0"/><feBlend in2="BackgroundImageFix" result="effect1_dropShadow_1_6459"/><feColorMatrix in="SourceAlpha" values="0 0 0 0 0 0 0 0 0 0 0 0 0 0 0 0 0 0 127 0" result="hardAlpha"/><feOffset dy="3.842"/><feGaussianBlur stdDeviation="3.842"/><feColorMatrix values="0 0 0 0 0.717647 0 0 0 0 0.717647 0 0 0 0 0.717647 0 0 0 0.08 0"/><feBlend in2="effect1_dropShadow_1_6459" result="effect2_dropShadow_1_6459"/><feBlend in="SourceGraphic" in2="effect2_dropShadow_1_6459" result="shape"/></filter></defs></svg>