<svg aria-hidden="true" style="width:0;height:0;position:absolute;overflow:hidden" xmlns="http://www.w3.org/2000/svg"><defs><symbol id="icon-dropright" viewBox="0 0 32 32"><path fill="currentColor" d="m13.061 4.939 10 10a1.502 1.502 0 0 1 .327 1.637 1.502 1.502 0 0 1-.327.487l-10 10a1.502 1.502 0 0 1-2.126-2.125l8.939-8.939-8.94-8.939a1.502 1.502 0 0 1 2.126-2.126l.001.003z"/></symbol><symbol id="icon-options" viewBox="0 0 31 32"><path d="M16.8 15.52v11.04a1.44 1.44 0 0 1-2.88 0V15.52a1.44 1.44 0 0 1 2.88 0zm7.2 8.16a1.44 1.44 0 0 0-1.44 1.44v1.44a1.44 1.44 0 0 0 2.88 0v-1.44A1.44 1.44 0 0 0 24 23.68zm2.88-4.8h-1.44V5.44a1.44 1.44 0 0 0-2.88 0v13.44h-1.44a1.44 1.44 0 0 0 0 2.88h5.76a1.44 1.44 0 0 0 0-2.88zm-20.16.96a1.44 1.44 0 0 0-1.44 1.44v5.28a1.44 1.44 0 0 0 2.88 0v-5.28a1.44 1.44 0 0 0-1.44-1.44zm2.88-4.8H8.16v-9.6a1.44 1.44 0 0 0-2.88 0v9.6H3.84a1.44 1.44 0 0 0 0 2.88H9.6a1.44 1.44 0 0 0 0-2.88zm8.64-5.76H16.8V5.44a1.44 1.44 0 0 0-2.88 0v3.84h-1.44a1.44 1.44 0 0 0 0 2.88h5.76a1.44 1.44 0 0 0 0-2.88z"/></symbol><symbol id="icon-user" viewBox="0 0 32 32"><path d="M16 2.5a13.502 13.502 0 0 0-12.472 8.334 13.497 13.497 0 0 0 2.927 14.712 13.5 13.5 0 0 0 23.046-9.545 13.512 13.512 0 0 0-13.5-13.5zM9.946 24.571c.696-.952 1.607-1.727 2.659-2.26s2.215-.812 3.394-.812a7.493 7.493 0 0 1 6.053 3.072 10.464 10.464 0 0 1-12.108 0zM12.5 15a3.494 3.494 0 0 1 2.161-3.233 3.498 3.498 0 0 1 4.772 2.551A3.498 3.498 0 0 1 16 18.501a3.502 3.502 0 0 1-3.5-3.5zm11.75 7.493a10.435 10.435 0 0 0-3.625-2.928 6.498 6.498 0 0 0-4.626-11.067 6.498 6.498 0 0 0-5.998 3.994 6.496 6.496 0 0 0 1.372 7.073 10.424 10.424 0 0 0-3.625 2.928 10.503 10.503 0 0 1-1.205-11.084 10.501 10.501 0 1 1 17.693 11.084h.013z"/></symbol><symbol id="icon-cart" viewBox="0 0 32 32"><path d="M12.5 27a2.506 2.506 0 0 1-1.543 2.31 2.496 2.496 0 0 1-2.724-.542 2.503 2.503 0 0 1 .379-3.846 2.5 2.5 0 0 1 3.889 2.079zM23 24.5a2.506 2.506 0 0 0-2.31 1.543 2.496 2.496 0 0 0 .542 2.724 2.503 2.503 0 0 0 3.846-.379 2.498 2.498 0 0 0-.311-3.157 2.5 2.5 0 0 0-1.768-.732zm6.434-15.059-3.411 11.088A3.484 3.484 0 0 1 22.677 23h-12.31a3.512 3.512 0 0 1-3.366-2.539L2.727 5.5H1.501A1.503 1.503 0 0 1 .001 4a1.503 1.503 0 0 1 1.5-1.5h1.602a2.51 2.51 0 0 1 2.404 1.813l.911 3.186H28a1.498 1.498 0 0 1 1.434 1.941zM25.969 10.5H7.274l2.611 9.137a.497.497 0 0 0 .481.363h12.31a.502.502 0 0 0 .478-.352l2.814-9.147z"/></symbol><symbol id="icon-search" viewBox="0 0 32 32"><path fill="currentColor" d="M29.061 26.939 23.125 21a11.512 11.512 0 0 0-1.543-15.668 11.517 11.517 0 0 0-15.735.514 11.512 11.512 0 0 0 7.015 19.602c2.91.287 5.819-.544 8.139-2.324l5.941 5.942a1.5 1.5 0 0 0 2.124 0 1.493 1.493 0 0 0 .326-1.637 1.484 1.484 0 0 0-.326-.487l-.005-.004zM5.5 14c0-1.681.498-3.325 1.433-4.722s2.261-2.487 3.815-3.131a8.502 8.502 0 0 1 9.263 1.842 8.498 8.498 0 0 1-1.289 13.078A8.5 8.5 0 0 1 14 22.5 8.51 8.51 0 0 1 5.5 14z"/></symbol><symbol id="icon-dropdown" viewBox="0 0 32 32"><path d="m27.061 13.061-10 10a1.502 1.502 0 0 1-1.637.327 1.502 1.502 0 0 1-.487-.327l-10-10a1.502 1.502 0 0 1 2.126-2.126l8.939 8.939 8.939-8.94a1.502 1.502 0 1 1 2.125 2.126l-.002.001z"/></symbol><symbol id="icon-close" viewBox="0 0 32 32"><path fill="currentColor" d="M26.061 23.939a1.502 1.502 0 0 1-2.125 2.125L16 18.125l-7.939 7.936a1.502 1.502 0 0 1-2.126-2.125L13.874 16 5.938 8.061a1.502 1.502 0 0 1 2.125-2.126l7.936 7.939 7.939-7.94a1.502 1.502 0 1 1 2.125 2.125l-7.939 7.94 7.936 7.939z"/></symbol><symbol id="icon-star-half" viewBox="0 0 17 32"><path fill="#ffc633" style="fill:var(--color2,#ffc633)" d="m6.591 31.099 10.105-5.622V0l-4.87 10.488L.347 11.879l8.469 7.873-2.224 11.347z"/></symbol><symbol id="icon-star" viewBox="0 0 35 32"><path fill="#ffc633" style="fill:var(--color2,#ffc633)" d="m17.191 0 4.871 10.488 11.479 1.391-8.469 7.873 2.224 11.347-10.105-5.622-10.105 5.622L9.31 19.752.841 11.879l11.479-1.391L17.19 0z"/></symbol><symbol id="icon-plus" viewBox="0 0 32 32"><path d="M28.5 16a1.503 1.503 0 0 1-1.5 1.5h-9.5V27a1.503 1.503 0 0 1-1.5 1.5 1.503 1.503 0 0 1-1.5-1.5v-9.5H5A1.503 1.503 0 0 1 3.5 16 1.503 1.503 0 0 1 5 14.5h9.5V5A1.503 1.503 0 0 1 16 3.5 1.503 1.503 0 0 1 17.5 5v9.5H27a1.503 1.503 0 0 1 1.5 1.5z"/></symbol><symbol id="icon-minus" viewBox="0 0 32 32"><path d="M28.5 16a1.503 1.503 0 0 1-1.5 1.5H5A1.503 1.503 0 0 1 3.5 16 1.503 1.503 0 0 1 5 14.5h22a1.503 1.503 0 0 1 1.5 1.5z"/></symbol><symbol id="icon-burger" viewBox="0 0 32 32"><path d="M28.5 16a1.503 1.503 0 0 1-1.5 1.5H5A1.503 1.503 0 0 1 3.5 16 1.503 1.503 0 0 1 5 14.5h22a1.503 1.503 0 0 1 1.5 1.5zM5 9.5h22A1.503 1.503 0 0 0 28.5 8 1.503 1.503 0 0 0 27 6.5H5A1.503 1.503 0 0 0 3.5 8 1.503 1.503 0 0 0 5 9.5zm22 13H5A1.503 1.503 0 0 0 3.5 24 1.503 1.503 0 0 0 5 25.5h22a1.503 1.503 0 0 0 1.5-1.5 1.503 1.503 0 0 0-1.5-1.5z"/></symbol><symbol id="icon-google-pay" viewBox="0 0 43 32"><path fill="#fff" style="fill:var(--color1,#fff)" d="M9.689 3.265h23.417a3.513 3.513 0 0 1 3.513 3.513v12.587a3.513 3.513 0 0 1-3.513 3.513H9.689a3.513 3.513 0 0 1-3.513-3.513V6.778a3.513 3.513 0 0 1 3.513-3.513z"/><path fill="#3c4043" style="fill:var(--color3,#3c4043)" d="M20.735 15.421h-.685v-5.328h1.815c.46 0 .852.153 1.173.46.328.307.492.681.492 1.123 0 .453-.164.827-.492 1.13-.317.303-.71.453-1.173.453h-1.13v2.161zm0-4.671v1.858h1.145a.916.916 0 0 0 .678-.275.898.898 0 0 0 .275-.653.89.89 0 0 0-.275-.646.888.888 0 0 0-.678-.282h-1.145v-.004zM25.321 11.656c.506 0 .906.136 1.198.407s.439.642.439 1.113v2.247h-.653v-.506h-.029c-.282.417-.66.624-1.13.624-.403 0-.738-.118-1.009-.357s-.407-.535-.407-.892c0-.378.143-.678.428-.899.285-.225.667-.335 1.141-.335.407 0 .742.075 1.002.225v-.157c0-.239-.093-.439-.282-.606s-.41-.25-.663-.25c-.382 0-.685.16-.906.485l-.603-.378c.332-.481.824-.72 1.473-.72zm-.884 2.646c0 .178.075.328.228.446.15.118.328.178.531.178.289 0 .546-.107.77-.321s.339-.464.339-.752c-.214-.168-.51-.253-.892-.253-.278 0-.51.068-.695.2-.189.139-.282.307-.282.503zM30.681 11.773l-2.282 5.249h-.706l.849-1.837-1.505-3.413h.745l1.084 2.618h.014l1.056-2.618h.745z"/><path fill="#4285f4" style="fill:var(--color4,#4285f4)" d="M18.012 12.829c0-.223-.02-.437-.057-.642h-2.87v1.177h1.653a1.418 1.418 0 0 1-.613.948v.764h.984c.575-.532.904-1.318.904-2.246z"/><path fill="#34a853" style="fill:var(--color5,#34a853)" d="M16.125 14.312a1.837 1.837 0 0 1-1.039.293c-.797 0-1.473-.537-1.715-1.261h-1.015v.787a3.054 3.054 0 0 0 2.73 1.682c.825 0 1.518-.271 2.023-.739l-.984-.763z"/><path fill="#fabb05" style="fill:var(--color6,#fabb05)" d="M13.274 12.759c0-.203.034-.4.096-.585v-.787h-1.015c-.208.413-.325.878-.325 1.372s.117.959.325 1.372l1.015-.787a1.835 1.835 0 0 1-.096-.585z"/><path fill="#e94235" style="fill:var(--color7,#e94235)" d="M15.085 10.914c.45 0 .854.155 1.172.458l.872-.871a2.937 2.937 0 0 0-2.044-.796 3.056 3.056 0 0 0-2.73 1.682l1.015.787c.242-.724.918-1.261 1.715-1.261z"/></symbol><symbol id="icon-apple-pay" viewBox="0 0 43 32"><path fill="#fff" style="fill:var(--color1,#fff)" d="M9.94 3.265h23.417a3.513 3.513 0 0 1 3.513 3.513v12.587a3.513 3.513 0 0 1-3.513 3.513H9.94a3.513 3.513 0 0 1-3.513-3.513V6.778A3.513 3.513 0 0 1 9.94 3.265z"/><path fill="#000008" style="fill:var(--color8,#000008)" d="M16.274 10.502c.203-.254.341-.595.305-.944-.297.015-.66.196-.87.45-.189.218-.356.573-.312.907.334.029.667-.167.878-.414zM16.575 10.981c-.485-.029-.897.275-1.128.275s-.586-.261-.969-.253a1.427 1.427 0 0 0-1.215.738c-.521.898-.137 2.229.369 2.96.246.362.542.76.933.746.369-.014.514-.239.962-.239s.578.239.969.232c.405-.007.658-.362.904-.724.282-.412.398-.81.405-.832-.007-.007-.781-.304-.788-1.194-.007-.745.608-1.1.636-1.122-.347-.514-.89-.571-1.078-.586zM20.795 9.972c1.053 0 1.787.726 1.787 1.783 0 1.061-.749 1.791-1.813 1.791h-1.166v1.855h-.843V9.972h2.035zm-1.193 2.867h.967c.734 0 1.151-.395 1.151-1.08s-.418-1.076-1.148-1.076h-.971v2.156zM22.802 14.277c0-.692.53-1.117 1.471-1.17l1.084-.064v-.305c0-.44-.297-.704-.794-.704-.47 0-.764.226-.835.579h-.767c.045-.715.655-1.242 1.633-1.242.959 0 1.573.508 1.573 1.302v2.728h-.779v-.651h-.019c-.23.44-.73.719-1.249.719-.775 0-1.317-.482-1.317-1.193zm2.555-.358v-.312l-.974.06c-.485.034-.76.248-.76.587 0 .346.286.572.722.572.568 0 1.012-.391 1.012-.907zM26.901 16.857v-.658c.06.015.196.015.263.015.376 0 .579-.158.703-.564 0-.008.072-.241.072-.245l-1.43-3.962h.88l1.001 3.221h.015l1.001-3.221h.858l-1.482 4.165c-.338.959-.73 1.268-1.55 1.268-.068 0-.271-.008-.331-.019z"/></symbol><symbol id="icon-pay-pal" viewBox="0 0 43 32"><path fill="#fff" style="fill:var(--color1,#fff)" d="M9.539 3.265h23.417a3.513 3.513 0 0 1 3.513 3.513v12.587a3.513 3.513 0 0 1-3.513 3.513H9.539a3.513 3.513 0 0 1-3.513-3.513V6.778a3.513 3.513 0 0 1 3.513-3.513z"/><path fill="#253b80" style="fill:var(--color9,#253b80)" d="M12.686 10.218h-1.755a.244.244 0 0 0-.241.206l-.71 4.5a.146.146 0 0 0 .145.169h.838c.12 0 .222-.087.241-.206l.191-1.214a.243.243 0 0 1 .241-.206h.556c1.156 0 1.823-.559 1.998-1.668.079-.485.003-.866-.224-1.133-.249-.293-.692-.448-1.279-.448zm.203 1.643c-.096.63-.577.63-1.042.63h-.265l.186-1.176a.146.146 0 0 1 .144-.123h.121c.317 0 .616 0 .77.181.092.108.12.268.085.489zm5.044-.02h-.84a.146.146 0 0 0-.145.123l-.037.235-.059-.085c-.182-.264-.588-.352-.993-.352-.929 0-1.722.703-1.877 1.69-.08.492.034.963.313 1.291.256.302.623.428 1.059.428.748 0 1.163-.481 1.163-.481l-.038.234a.146.146 0 0 0 .144.169h.757c.12 0 .222-.087.241-.206l.454-2.876a.146.146 0 0 0-.144-.169zm-1.172 1.636a.936.936 0 0 1-.948.802c-.244 0-.439-.078-.564-.227-.124-.147-.171-.357-.132-.59a.941.941 0 0 1 .942-.809c.239 0 .433.079.56.229.128.151.179.362.142.595zm4.803-1.636h.845c.118 0 .187.133.12.23l-2.809 4.054a.243.243 0 0 1-.201.105h-.844a.146.146 0 0 1-.119-.231l.875-1.235-.93-2.73a.146.146 0 0 1 .139-.193h.83c.108 0 .203.071.234.174l.494 1.649 1.165-1.716a.245.245 0 0 1 .202-.107z"/><path fill="#179bd7" style="fill:var(--color10,#179bd7)" d="m30.722 14.923.72-4.582a.148.148 0 0 1 .144-.124h.811c.09 0 .158.08.144.169l-.71 4.5a.243.243 0 0 1-.241.206h-.724a.146.146 0 0 1-.144-.169zm-5.517-4.706H23.45a.244.244 0 0 0-.241.206l-.71 4.5a.146.146 0 0 0 .144.169h.901a.17.17 0 0 0 .168-.144l.201-1.276a.243.243 0 0 1 .241-.206h.555c1.156 0 1.823-.559 1.998-1.668.079-.485.003-.866-.224-1.133-.249-.293-.691-.448-1.279-.448zm.203 1.644c-.096.63-.577.63-1.042.63h-.265l.186-1.176a.145.145 0 0 1 .144-.123h.121c.317 0 .616 0 .77.181.092.108.12.268.085.489zm5.043-.02h-.84a.145.145 0 0 0-.144.123l-.037.235-.059-.085c-.182-.264-.587-.352-.992-.352-.929 0-1.722.703-1.876 1.69-.08.492.034.963.313 1.291.257.302.623.428 1.059.428.748 0 1.163-.481 1.163-.481l-.037.234a.146.146 0 0 0 .145.169h.757c.12 0 .222-.087.241-.206l.455-2.876a.147.147 0 0 0-.145-.169zm-1.171 1.635a.936.936 0 0 1-.948.802c-.244 0-.439-.078-.564-.227-.124-.147-.171-.357-.132-.59a.941.941 0 0 1 .942-.809c.239 0 .433.079.561.229.128.151.179.362.142.595z"/></symbol><symbol id="icon-mastercard" viewBox="0 0 43 32"><path fill="#fff" style="fill:var(--color1,#fff)" d="M9.791 3.265h23.417a3.513 3.513 0 0 1 3.513 3.513v12.587a3.513 3.513 0 0 1-3.513 3.513H9.791a3.513 3.513 0 0 1-3.513-3.513V6.778a3.513 3.513 0 0 1 3.513-3.513z"/><path fill="#ff5f00" style="fill:var(--color11,#ff5f00)" d="M23.686 9.044h-4.482v8.055h4.482V9.044z"/><path fill="#eb001b" style="fill:var(--color12,#eb001b)" d="M19.489 13.071a5.108 5.108 0 0 1 1.956-4.027 5.126 5.126 0 0 0-5.404-.58 5.124 5.124 0 1 0 5.404 8.636 5.113 5.113 0 0 1-1.956-4.027z"/><path fill="#f79e1b" style="fill:var(--color13,#f79e1b)" d="M29.733 13.071a5.124 5.124 0 0 1-5.668 5.094 5.121 5.121 0 0 1-2.619-1.066 5.137 5.137 0 0 0 1.956-4.028 5.123 5.123 0 0 0-1.956-4.028 5.126 5.126 0 0 1 5.404-.58 5.124 5.124 0 0 1 2.883 4.608zM29.244 16.245v-.165h.066v-.034h-.169v.034h.067v.165h.036zm.329 0v-.199h-.052l-.06.137-.06-.137h-.052v.199h.037v-.15l.056.129h.038l.056-.13v.15h.037z"/></symbol><symbol id="icon-visa" viewBox="0 0 43 32"><path fill="#fff" style="fill:var(--color1,#fff)" d="M10.043 3.265H33.46a3.513 3.513 0 0 1 3.513 3.513v12.587a3.513 3.513 0 0 1-3.513 3.513H10.043a3.513 3.513 0 0 1-3.513-3.513V6.778a3.513 3.513 0 0 1 3.513-3.513z"/><path fill="#1434cb" style="fill:var(--color14,#1434cb)" d="m21.566 9.875-1.42 6.637h-1.717l1.42-6.637h1.717zm7.224 4.286.904-2.493.52 2.493H28.79zm1.915 2.352h1.588l-1.386-6.637h-1.466a.783.783 0 0 0-.731.487l-2.576 6.15h1.803l.358-.991h2.203l.207.991zm-4.481-2.168c.007-1.752-2.423-1.848-2.406-2.631.005-.238.232-.491.728-.556.246-.032.924-.057 1.693.297l.301-1.408a4.614 4.614 0 0 0-1.606-.294c-1.697 0-2.892.902-2.902 2.194-.011.955.853 1.489 1.503 1.806.669.325.894.534.891.825-.004.446-.534.642-1.027.65-.863.014-1.364-.233-1.764-.419l-.311 1.454c.401.184 1.142.344 1.91.353 1.803 0 2.983-.891 2.989-2.271zm-7.112-4.47-2.782 6.637h-1.815l-1.369-5.297c-.083-.326-.155-.446-.408-.583-.412-.224-1.094-.434-1.694-.564l.041-.193h2.922c.372 0 .707.248.792.677l.723 3.841 1.787-4.518h1.804z"/></symbol><symbol id="icon-socials" viewBox="0 0 169 32"><path fill="#fff" style="fill:var(--color1,#fff)" d="M32 16c0 8.837-7.163 16-16 16S0 24.837 0 16 7.163 0 16 0s16 7.163 16 16z"/><path fill="none" stroke="#000" style="stroke:var(--color15,#000)" stroke-width="1.143" d="M31.429 16c0 8.521-6.908 15.429-15.429 15.429S.571 24.521.571 16 7.479.571 16 .571 31.429 7.479 31.429 16z"/><path style="fill:var(--color15,#000)" d="M23.094 12.552a5.832 5.832 0 0 1-1.516.426 2.566 2.566 0 0 0 1.144-1.437 5.789 5.789 0 0 1-1.676.639 2.655 2.655 0 0 0-1.915-.825 2.611 2.611 0 0 0-2.607 2.607c0 .213.027.399.08.585a7.455 7.455 0 0 1-5.401-2.74 2.722 2.722 0 0 0-.346 1.304c0 .904.452 1.703 1.171 2.181a3.084 3.084 0 0 1-1.197-.319V15a2.63 2.63 0 0 0 2.102 2.581 2.91 2.91 0 0 1-.692.08c-.16 0-.346-.027-.505-.053.346 1.038 1.304 1.809 2.448 1.809a5.322 5.322 0 0 1-3.246 1.117c-.213 0-.426 0-.612-.027a7.403 7.403 0 0 0 4.017 1.171c4.815 0 7.449-3.991 7.449-7.449v-.346a4.776 4.776 0 0 0 1.304-1.33zM77.714 16c0 8.837-7.163 16-16 16s-16-7.163-16-16 7.163-16 16-16 16 7.163 16 16z"/><path fill="#fff" style="fill:var(--color1,#fff)" d="M60.239 23.204v-6.347h-2.136v-2.474h2.136v-1.824c0-2.117 1.293-3.27 3.181-3.27.905 0 1.682.067 1.909.097v2.212l-1.31.001c-1.027 0-1.226.488-1.226 1.204v1.579h2.449l-.319 2.474h-2.13v6.347h-2.554zM123.429 16c0 8.837-7.163 16-16 16s-16-7.163-16-16 7.163-16 16-16 16 7.163 16 16z"/><path fill="none" stroke="#000" style="stroke:var(--color15,#000)" stroke-width="1.143" d="M122.857 16c0 8.521-6.908 15.429-15.429 15.429S91.999 24.521 91.999 16 98.907.571 107.428.571 122.857 7.479 122.857 16z"/><path style="fill:var(--color15,#000)" d="M107.43 9.654c2.067 0 2.312.008 3.128.045.491.006.977.096 1.438.267a2.565 2.565 0 0 1 1.469 1.469c.17.46.261.947.267 1.438.037.817.045 1.061.045 3.128s-.008 2.312-.045 3.128a4.283 4.283 0 0 1-.267 1.438 2.565 2.565 0 0 1-1.469 1.469c-.46.17-.947.26-1.438.267-.816.037-1.061.045-3.128.045s-2.312-.008-3.129-.045a4.283 4.283 0 0 1-1.438-.267 2.565 2.565 0 0 1-1.469-1.469 4.308 4.308 0 0 1-.267-1.438c-.037-.817-.045-1.061-.045-3.128s.008-2.312.045-3.128c.006-.491.096-.977.267-1.438a2.565 2.565 0 0 1 1.469-1.469c.46-.17.947-.261 1.438-.267.817-.037 1.061-.045 3.129-.045zm0-1.395c-2.102 0-2.366.009-3.192.046a5.671 5.671 0 0 0-1.88.36 3.795 3.795 0 0 0-1.37.893 3.793 3.793 0 0 0-.894 1.371 5.702 5.702 0 0 0-.36 1.88c-.037.825-.046 1.09-.046 3.191s.009 2.366.046 3.192c.013.642.134 1.278.36 1.88.195.517.499.984.893 1.371.386.394.854.699 1.371.893a5.702 5.702 0 0 0 1.88.36c.826.037 1.089.047 3.192.047s2.366-.009 3.192-.047a5.676 5.676 0 0 0 1.88-.36 3.964 3.964 0 0 0 2.264-2.265 5.702 5.702 0 0 0 .36-1.88c.037-.825.046-1.09.046-3.191s-.009-2.366-.047-3.192a5.671 5.671 0 0 0-.36-1.88 3.777 3.777 0 0 0-.893-1.371 3.794 3.794 0 0 0-1.371-.893 5.702 5.702 0 0 0-1.88-.36c-.825-.037-1.09-.046-3.191-.046z"/><path style="fill:var(--color15,#000)" d="M107.431 12.027a3.976 3.976 0 1 0-.002 7.951 3.976 3.976 0 0 0 .003-7.95zm0 6.556a2.58 2.58 0 1 1 .002-5.163 2.58 2.58 0 0 1-.003 5.164zM111.563 12.798a.93.93 0 1 0 0-1.858.93.93 0 0 0 0 1.858z"/><path fill="#fff" style="fill:var(--color1,#fff)" d="M169.143 16c0 8.837-7.163 16-16 16s-16-7.163-16-16 7.163-16 16-16 16 7.163 16 16z"/><path fill="none" stroke="#000" style="stroke:var(--color15,#000)" stroke-width="1.143" d="M168.571 16c0 8.521-6.908 15.429-15.429 15.429S137.713 24.521 137.713 16 144.621.571 153.142.571 168.571 7.479 168.571 16z"/><path style="fill:var(--color15,#000)" d="M153.837 8.259a7.388 7.388 0 0 0-7.406 7.406c0 3.271 2.129 6.048 5.061 7.035.37.062.494-.154.494-.37v-1.265c-2.067.463-2.499-.987-2.499-.987-.339-.864-.833-1.08-.833-1.08-.679-.463.062-.463.062-.463.741.062 1.142.771 1.142.771.648 1.142 1.728.802 2.16.617.062-.494.247-.802.463-.987-1.635-.185-3.363-.833-3.363-3.672 0-.802.278-1.481.771-1.975-.062-.185-.339-.926.062-1.975 0 0 .617-.185 2.037.771.586-.154 1.234-.247 1.851-.247s1.265.093 1.851.247c1.419-.957 2.037-.771 2.037-.771.401 1.018.154 1.759.062 1.975.463.525.771 1.173.771 1.975 0 2.839-1.728 3.456-3.394 3.641.278.216.494.679.494 1.358V22.3c0 .185.123.432.525.37a7.37 7.37 0 0 0 5.061-7.004 7.388 7.388 0 0 0-7.406-7.406z"/></symbol><symbol id="icon-email" viewBox="0 0 32 32"><path d="M28 5.5H4A1.503 1.503 0 0 0 2.5 7v17A2.5 2.5 0 0 0 5 26.5h22a2.5 2.5 0 0 0 2.5-2.5V7A1.503 1.503 0 0 0 28 5.5zM16 15.965 7.856 8.5h16.287l-8.144 7.465zM11.599 16 5.5 21.59V10.41L11.599 16zm2.22 2.035 1.167 1.071a1.498 1.498 0 0 0 2.028 0l1.167-1.071 5.963 5.465H7.857l5.963-5.465zM20.401 16l6.099-5.59v11.18L20.401 16z" fill-opacity=".4"/></symbol><symbol id="icon-dropup" viewBox="0 0 30 32"><path d="m4.648 18.766 9.412-9.412a1.42 1.42 0 0 1 1.541-.307c.171.071.327.176.459.307l9.412 9.412a1.415 1.415 0 0 1-2 2l-8.413-8.413-8.413 8.414a1.415 1.415 0 0 1-2-2l.002-.001z"/></symbol><symbol id="left-arrow" viewBox="0 0 32 32"><path d="m12.586 27.414-10-10a2 2 0 0 1 0-2.828l10-10a2 2 0 1 1 2.828 2.828L8.828 14H28a2 2 0 1 1 0 4H8.828l6.586 6.586c.39.39.586.902.586 1.414s-.195 1.024-.586 1.414a2 2 0 0 1-2.828 0z"/></symbol><symbol id="right-arrow" viewBox="0 0 32 32"><path d="m19.414 27.414 10-10a2 2 0 0 0 0-2.828l-10-10a2 2 0 1 0-2.828 2.828L23.172 14H4a2 2 0 1 0 0 4h19.172l-6.586 6.586c-.39.39-.586.902-.586 1.414s.195 1.024.586 1.414a2 2 0 0 0 2.828 0z"/></symbol><symbol id="icon-circle-black" viewBox="0 0 32 32"><path d="M32 16c0 8.837-7.163 16-16 16S0 24.837 0 16 7.163 0 16 0s16 7.163 16 16z"/></symbol><symbol id="icon-circle-white" viewBox="0 0 33 32"><path fill="#fff" style="fill:var(--color1,#fff)" d="M32.432 16c0 8.837-7.163 16-16 16s-16-7.163-16-16 7.163-16 16-16 16 7.163 16 16z"/></symbol><symbol id="icon-circle-pink" viewBox="0 0 32 32"><path fill="#f506a4" style="fill:var(--color3,#f506a4)" d="M32 16c0 8.837-7.163 16-16 16S0 24.837 0 16 7.163 0 16 0s16 7.163 16 16z"/></symbol><symbol id="icon-circle-purple" viewBox="0 0 33 32"><path fill="#7d06f5" style="fill:var(--color4,#7d06f5)" d="M32.432 16c0 8.837-7.163 16-16 16s-16-7.163-16-16 7.163-16 16-16 16 7.163 16 16z"/></symbol><symbol id="icon-circle-blue" viewBox="0 0 32 32"><path fill="#063af5" style="fill:var(--color5,#063af5)" d="M32 16c0 8.837-7.163 16-16 16S0 24.837 0 16 7.163 0 16 0s16 7.163 16 16z"/></symbol><symbol id="icon-circle-aqua" viewBox="0 0 32 32"><path fill="#06caf5" style="fill:var(--color6,#06caf5)" d="M32 16c0 8.837-7.163 16-16 16S0 24.837 0 16 7.163 0 16 0s16 7.163 16 16z"/></symbol><symbol id="icon-circle-orange" viewBox="0 0 33 32"><path fill="#f57906" style="fill:var(--color7,#f57906)" d="M32.432 16c0 8.837-7.163 16-16 16s-16-7.163-16-16 7.163-16 16-16 16 7.163 16 16z"/></symbol><symbol id="icon-circle-yellow" viewBox="0 0 32 32"><path fill="#f5dd06" style="fill:var(--color8,#f5dd06)" d="M32 16c0 8.837-7.163 16-16 16S0 24.837 0 16 7.163 0 16 0s16 7.163 16 16z"/></symbol><symbol id="icon-circle-red" viewBox="0 0 33 32"><path fill="#f50606" style="fill:var(--color9,#f50606)" d="M32.432 16c0 8.837-7.163 16-16 16s-16-7.163-16-16 7.163-16 16-16 16 7.163 16 16z"/></symbol><symbol id="icon-circle-green" viewBox="0 0 32 32"><path fill="#00c12b" style="fill:var(--color10,#00c12b)" d="M32 16c0 8.837-7.163 16-16 16S0 24.837 0 16 7.163 0 16 0s16 7.163 16 16z"/></symbol></defs></svg>