<svg width="56" height="43" fill="none" xmlns="http://www.w3.org/2000/svg"><g filter="url('#filter0_dd_1_6455')"><rect x="8" y="5" width="39.957" height="25.741" rx="4.61" fill="#fff"/><rect x="7.904" y="4.904" width="40.149" height="25.933" rx="4.706" stroke="#D6DCE5" stroke-width=".192"/><path d="m27.734 13.675-1.864 8.712h-2.253l1.864-8.712h2.253Zm9.482 5.626 1.187-3.272.682 3.272h-1.869Zm2.514 3.087h2.085l-1.819-8.713h-1.924c-.432 0-.797.252-.96.64l-3.38 8.072h2.366l.47-1.3h2.891l.271 1.3Zm-5.881-2.845c.01-2.3-3.18-2.426-3.158-3.453.007-.313.305-.645.956-.73.323-.042 1.212-.075 2.222.39l.395-1.848a6.056 6.056 0 0 0-2.108-.386c-2.227 0-3.795 1.184-3.808 2.88-.014 1.254 1.119 1.954 1.973 2.371.878.427 1.173.7 1.169 1.083-.006.584-.7.842-1.348.852-1.134.018-1.791-.306-2.315-.55l-.409 1.909c.527.242 1.499.452 2.507.463 2.367 0 3.916-1.17 3.924-2.981Zm-9.335-5.867-3.651 8.711H18.48l-1.797-6.952c-.11-.428-.204-.585-.536-.766-.54-.293-1.436-.57-2.223-.74l.054-.254h3.835c.488 0 .928.326 1.039.889l.949 5.041 2.345-5.93h2.368Z" fill="#1434CB"/></g><defs><filter id="filter0_dd_1_6455" x=".124" y=".966" width="55.709" height="41.494" filterUnits="userSpaceOnUse" color-interpolation-filters="sRGB"><feFlood flood-opacity="0" result="BackgroundImageFix"/><feColorMatrix in="SourceAlpha" values="0 0 0 0 0 0 0 0 0 0 0 0 0 0 0 0 0 0 127 0" result="hardAlpha"/><feOffset dy=".384"/><feGaussianBlur stdDeviation="1.921"/><feColorMatrix values="0 0 0 0 0.717647 0 0 0 0 0.717647 0 0 0 0 0.717647 0 0 0 0.08 0"/><feBlend in2="BackgroundImageFix" result="effect1_dropShadow_1_6455"/><feColorMatrix in="SourceAlpha" values="0 0 0 0 0 0 0 0 0 0 0 0 0 0 0 0 0 0 127 0" result="hardAlpha"/><feOffset dy="3.842"/><feGaussianBlur stdDeviation="3.842"/><feColorMatrix values="0 0 0 0 0.717647 0 0 0 0 0.717647 0 0 0 0 0.717647 0 0 0 0.08 0"/><feBlend in2="effect1_dropShadow_1_6455" result="effect2_dropShadow_1_6455"/><feBlend in="SourceGraphic" in2="effect2_dropShadow_1_6455" result="shape"/></filter></defs></svg>