<svg width="57" height="43" viewBox="0 0 57 43" fill="none" xmlns="http://www.w3.org/2000/svg">
<g filter="url(#filter0_dd_1_6461)">
<rect x="8.72876" y="5" width="39.9568" height="25.7414" rx="4.6104" fill="white"/>
<rect x="8.63271" y="4.90395" width="40.1489" height="25.9335" rx="4.70645" stroke="#D6DCE5" stroke-width="0.1921"/>
<path d="M21.6526 14.499C21.9192 14.1656 22.1001 13.7179 22.0523 13.2604C21.6621 13.2798 21.1859 13.5178 20.9102 13.8515C20.6627 14.1373 20.4436 14.6037 20.5007 15.042C20.9387 15.08 21.3764 14.8231 21.6526 14.499Z" fill="#000008"/>
<path d="M22.0474 15.1276C21.4112 15.0897 20.8703 15.4887 20.5665 15.4887C20.2626 15.4887 19.7974 15.1467 19.2942 15.1559C18.6393 15.1655 18.0316 15.5358 17.6993 16.1248C17.0157 17.3029 17.5189 19.0505 18.1836 20.0101C18.5064 20.4848 18.8954 21.0075 19.4081 20.9887C19.8924 20.9697 20.0822 20.6751 20.671 20.6751C21.2593 20.6751 21.4303 20.9887 21.943 20.9792C22.4746 20.9697 22.807 20.5042 23.1298 20.0291C23.5001 19.4879 23.6517 18.9654 23.6613 18.9367C23.6517 18.9272 22.636 18.5376 22.6266 17.3692C22.617 16.3909 23.4241 15.9256 23.462 15.8967C23.0063 15.2227 22.2942 15.1467 22.0474 15.1276Z" fill="#000008"/>
<path d="M27.5865 13.8037C28.9692 13.8037 29.932 14.7568 29.932 16.1444C29.932 17.537 28.9494 18.495 27.5519 18.495H26.021V20.9296H24.9149V13.8037L27.5865 13.8037ZM26.021 17.5666H27.2901C28.2531 17.5666 28.8012 17.0481 28.8012 16.1493C28.8012 15.2506 28.2531 14.737 27.2951 14.737H26.021V17.5666Z" fill="#000008"/>
<path d="M30.221 19.4531C30.221 18.5443 30.9173 17.9864 32.1519 17.9172L33.574 17.8333V17.4333C33.574 16.8555 33.1839 16.5099 32.5322 16.5099C31.9148 16.5099 31.5296 16.8061 31.4358 17.2703H30.4284C30.4877 16.332 31.2876 15.6407 32.5716 15.6407C33.8308 15.6407 34.6357 16.3073 34.6357 17.3493V20.9296H33.6135V20.0752H33.5889C33.2877 20.653 32.6309 21.0184 31.9494 21.0184C30.9321 21.0184 30.221 20.3863 30.221 19.4531ZM33.574 18.9839V18.5741L32.295 18.653C31.658 18.6975 31.2975 18.979 31.2975 19.4234C31.2975 19.8777 31.6728 20.174 32.2457 20.174C32.9913 20.174 33.574 19.6604 33.574 18.9839Z" fill="#000008"/>
<path d="M35.6008 22.8407V21.9765C35.6797 21.9962 35.8574 21.9962 35.9464 21.9962C36.4402 21.9962 36.7069 21.7888 36.8698 21.2555C36.8698 21.2456 36.9637 20.9395 36.9637 20.9345L35.0872 15.7345H36.2426L37.5563 19.9617H37.576L38.8897 15.7345H40.0156L38.0697 21.2011C37.6255 22.4604 37.1119 22.8654 36.0354 22.8654C35.9464 22.8654 35.6797 22.8555 35.6008 22.8407Z" fill="#000008"/>
</g>
<defs>
<filter id="filter0_dd_1_6461" x="0.852621" y="0.965861" width="55.7091" height="41.4936" filterUnits="userSpaceOnUse" color-interpolation-filters="sRGB">
<feFlood flood-opacity="0" result="BackgroundImageFix"/>
<feColorMatrix in="SourceAlpha" type="matrix" values="0 0 0 0 0 0 0 0 0 0 0 0 0 0 0 0 0 0 127 0" result="hardAlpha"/>
<feOffset dy="0.3842"/>
<feGaussianBlur stdDeviation="1.921"/>
<feColorMatrix type="matrix" values="0 0 0 0 0.717647 0 0 0 0 0.717647 0 0 0 0 0.717647 0 0 0 0.08 0"/>
<feBlend mode="normal" in2="BackgroundImageFix" result="effect1_dropShadow_1_6461"/>
<feColorMatrix in="SourceAlpha" type="matrix" values="0 0 0 0 0 0 0 0 0 0 0 0 0 0 0 0 0 0 127 0" result="hardAlpha"/>
<feOffset dy="3.842"/>
<feGaussianBlur stdDeviation="3.842"/>
<feColorMatrix type="matrix" values="0 0 0 0 0.717647 0 0 0 0 0.717647 0 0 0 0 0.717647 0 0 0 0.08 0"/>
<feBlend mode="normal" in2="effect1_dropShadow_1_6461" result="effect2_dropShadow_1_6461"/>
<feBlend mode="normal" in="SourceGraphic" in2="effect2_dropShadow_1_6461" result="shape"/>
</filter>
</defs>
</svg>
