<svg width="18" height="18" viewBox="0 0 18 18" fill="none" xmlns="http://www.w3.org/2000/svg">
<path d="M15.9465 5.89809L7.48483 14.3598C7.41113 14.4337 7.32356 14.4924 7.22713 14.5325C7.13071 14.5725 7.02733 14.5931 6.92292 14.5931C6.81851 14.5931 6.71513 14.5725 6.61871 14.5325C6.52228 14.4924 6.43471 14.4337 6.36101 14.3598L2.65902 10.6578C2.58523 10.584 2.52669 10.4964 2.48676 10.4C2.44682 10.3036 2.42627 10.2002 2.42627 10.0959C2.42627 9.99153 2.44682 9.8882 2.48676 9.79179C2.52669 9.69537 2.58523 9.60777 2.65902 9.53398C2.73281 9.46019 2.82041 9.40166 2.91683 9.36172C3.01324 9.32178 3.11657 9.30123 3.22093 9.30123C3.32529 9.30123 3.42862 9.32178 3.52503 9.36172C3.62145 9.40166 3.70905 9.46019 3.78284 9.53398L6.92358 12.6747L14.824 4.7756C14.9731 4.62657 15.1752 4.54285 15.3859 4.54285C15.5967 4.54285 15.7988 4.62657 15.9478 4.7756C16.0969 4.92462 16.1806 5.12675 16.1806 5.33751C16.1806 5.54826 16.0969 5.75039 15.9478 5.89942L15.9465 5.89809Z" fill="white"/>
</svg>
