<svg width="56" height="43" viewBox="0 0 56 43" fill="none" xmlns="http://www.w3.org/2000/svg">
<g filter="url(#filter0_dd_1_6463)">
<rect x="7.97192" y="5" width="39.9568" height="25.7414" rx="4.6104" fill="white"/>
<rect x="7.87587" y="4.90395" width="40.1489" height="25.9335" rx="4.70645" stroke="#D6DCE5" stroke-width="0.1921"/>
<path d="M27.0818 20.9558H26.1831V13.9627H28.5656C29.1695 13.9627 29.6843 14.164 30.1056 14.5665C30.5362 14.9691 30.7515 15.4606 30.7515 16.041C30.7515 16.6354 30.5362 17.1269 30.1056 17.5248C29.689 17.9227 29.1741 18.1192 28.5656 18.1192H27.0818V20.9558ZM27.0818 14.824V17.2627H28.5844C28.9401 17.2627 29.2397 17.141 29.4737 16.9022C29.7124 16.6635 29.8341 16.3733 29.8341 16.0457C29.8341 15.7227 29.7124 15.4372 29.4737 15.1984C29.2397 14.9504 28.9448 14.8287 28.5844 14.8287H27.0818V14.824Z" fill="#3C4043"/>
<path d="M33.1012 16.0129C33.7659 16.0129 34.2901 16.1908 34.6739 16.5465C35.0578 16.9022 35.2497 17.389 35.2497 18.0069V20.9558H34.3931V20.2911H34.3556C33.9859 20.8388 33.4897 21.1103 32.8718 21.1103C32.3429 21.1103 31.9029 20.9558 31.5472 20.6422C31.1915 20.3286 31.0136 19.9401 31.0136 19.472C31.0136 18.9758 31.2008 18.5826 31.5753 18.2924C31.9497 17.9975 32.4506 17.8524 33.0731 17.8524C33.6067 17.8524 34.0467 17.9507 34.3884 18.1473V17.9414C34.3884 17.6278 34.2667 17.3656 34.0186 17.1456C33.7705 16.9256 33.4803 16.818 33.148 16.818C32.6472 16.818 32.2493 17.0286 31.9591 17.4546L31.168 16.9584C31.6034 16.3265 32.2493 16.0129 33.1012 16.0129ZM31.9404 19.486C31.9404 19.7201 32.0387 19.9167 32.2399 20.0711C32.4365 20.2256 32.6706 20.3052 32.9374 20.3052C33.3165 20.3052 33.6535 20.1647 33.9484 19.8839C34.2433 19.6031 34.3931 19.2754 34.3931 18.8963C34.1122 18.6763 33.7237 18.5639 33.2229 18.5639C32.8578 18.5639 32.5536 18.6529 32.3102 18.826C32.0621 19.0086 31.9404 19.2286 31.9404 19.486Z" fill="#3C4043"/>
<path d="M40.1364 16.1674L37.1407 23.0575H36.2139L37.328 20.6469L35.3527 16.1674H36.331L37.7539 19.6031H37.7726L39.1581 16.1674H40.1364Z" fill="#3C4043"/>
<path d="M23.5071 17.5529C23.5071 17.2599 23.4809 16.9795 23.4322 16.7099H19.6651V18.2545L21.8347 18.255C21.7467 18.7689 21.4635 19.2071 21.0296 19.4991V20.5013H22.321C23.0751 19.8034 23.5071 18.7718 23.5071 17.5529Z" fill="#4285F4"/>
<path d="M21.03 19.4992C20.6705 19.7417 20.2076 19.8835 19.666 19.8835C18.6199 19.8835 17.7324 19.1786 17.4146 18.2284H16.0825V19.2619C16.7424 20.5716 18.0989 21.4703 19.666 21.4703C20.7492 21.4703 21.6591 21.1141 22.3214 20.5009L21.03 19.4992Z" fill="#34A853"/>
<path d="M17.2891 17.4616C17.2891 17.1948 17.3336 16.9369 17.4146 16.6944V15.6609H16.0824C15.8095 16.2025 15.656 16.8138 15.656 17.4616C15.656 18.1094 15.81 18.7207 16.0824 19.2623L17.4146 18.2288C17.3336 17.9863 17.2891 17.7284 17.2891 17.4616Z" fill="#FABB05"/>
<path d="M19.666 15.0393C20.2572 15.0393 20.7866 15.2429 21.2046 15.6408L22.3491 14.4973C21.654 13.8499 20.7478 13.4525 19.666 13.4525C18.0994 13.4525 16.7424 14.3512 16.0824 15.6609L17.4146 16.6944C17.7324 15.7442 18.6199 15.0393 19.666 15.0393Z" fill="#E94235"/>
</g>
<defs>
<filter id="filter0_dd_1_6463" x="0.0957851" y="0.965861" width="55.7091" height="41.4936" filterUnits="userSpaceOnUse" color-interpolation-filters="sRGB">
<feFlood flood-opacity="0" result="BackgroundImageFix"/>
<feColorMatrix in="SourceAlpha" type="matrix" values="0 0 0 0 0 0 0 0 0 0 0 0 0 0 0 0 0 0 127 0" result="hardAlpha"/>
<feOffset dy="0.3842"/>
<feGaussianBlur stdDeviation="1.921"/>
<feColorMatrix type="matrix" values="0 0 0 0 0.717647 0 0 0 0 0.717647 0 0 0 0 0.717647 0 0 0 0.08 0"/>
<feBlend mode="normal" in2="BackgroundImageFix" result="effect1_dropShadow_1_6463"/>
<feColorMatrix in="SourceAlpha" type="matrix" values="0 0 0 0 0 0 0 0 0 0 0 0 0 0 0 0 0 0 127 0" result="hardAlpha"/>
<feOffset dy="3.842"/>
<feGaussianBlur stdDeviation="3.842"/>
<feColorMatrix type="matrix" values="0 0 0 0 0.717647 0 0 0 0 0.717647 0 0 0 0 0.717647 0 0 0 0.08 0"/>
<feBlend mode="normal" in2="effect1_dropShadow_1_6463" result="effect2_dropShadow_1_6463"/>
<feBlend mode="normal" in="SourceGraphic" in2="effect2_dropShadow_1_6463" result="shape"/>
</filter>
</defs>
</svg>
