<svg width="57" height="43" viewBox="0 0 57 43" fill="none" xmlns="http://www.w3.org/2000/svg">
<g filter="url(#filter0_dd_1_6457)">
<rect x="8.24292" y="5" width="39.9568" height="25.7414" rx="4.6104" fill="white"/>
<rect x="8.14687" y="4.90395" width="40.1489" height="25.9335" rx="4.70645" stroke="#D6DCE5" stroke-width="0.1921"/>
<path d="M31.0917 12.5846H25.2086V23.1566H31.0917V12.5846Z" fill="#FF5F00"/>
<path d="M25.5822 17.8706C25.5812 16.8524 25.812 15.8474 26.2569 14.9316C26.7018 14.0158 27.3492 13.2132 28.1502 12.5846C27.1583 11.805 25.9671 11.3201 24.7127 11.1855C23.4584 11.0509 22.1914 11.2719 21.0567 11.8232C19.922 12.3746 18.9653 13.2341 18.296 14.3035C17.6267 15.3729 17.2717 16.609 17.2717 17.8706C17.2717 19.1322 17.6267 20.3683 18.296 21.4377C18.9653 22.5071 19.922 23.3666 21.0567 23.918C22.1914 24.4693 23.4584 24.6903 24.7127 24.5557C25.9671 24.4211 27.1583 23.9362 28.1502 23.1566C27.3492 22.528 26.7018 21.7254 26.2569 20.8096C25.812 19.8938 25.5813 18.8888 25.5822 17.8706Z" fill="#EB001B"/>
<path d="M39.0283 17.8706C39.0283 19.1322 38.6734 20.3683 38.0041 21.4377C37.3348 22.5071 36.3782 23.3666 35.2435 23.9179C34.1088 24.4693 32.8419 24.6903 31.5875 24.5557C30.3332 24.4211 29.142 23.9362 28.1502 23.1566C28.9504 22.5274 29.5973 21.7246 30.0422 20.809C30.487 19.8933 30.7181 18.8886 30.7181 17.8706C30.7181 16.8526 30.487 15.8479 30.0422 14.9322C29.5973 14.0165 28.9504 13.2138 28.1502 12.5846C29.142 11.805 30.3332 11.3201 31.5875 11.1855C32.8419 11.0509 34.1088 11.2719 35.2435 11.8232C36.3782 12.3746 37.3348 13.2341 38.0041 14.3035C38.6734 15.3729 39.0283 16.609 39.0283 17.8706Z" fill="#F79E1B"/>
<path d="M38.3868 22.0369V21.8204H38.4741V21.7763H38.2518V21.8204H38.3391V22.0369H38.3868ZM38.8183 22.0369V21.7759H38.7502L38.6718 21.9554L38.5934 21.7759H38.5253V22.0369H38.5734V21.84L38.6469 22.0097H38.6968L38.7702 21.8396V22.0369H38.8183Z" fill="#F79E1B"/>
</g>
<defs>
<filter id="filter0_dd_1_6457" x="0.366781" y="0.965861" width="55.7091" height="41.4936" filterUnits="userSpaceOnUse" color-interpolation-filters="sRGB">
<feFlood flood-opacity="0" result="BackgroundImageFix"/>
<feColorMatrix in="SourceAlpha" type="matrix" values="0 0 0 0 0 0 0 0 0 0 0 0 0 0 0 0 0 0 127 0" result="hardAlpha"/>
<feOffset dy="0.3842"/>
<feGaussianBlur stdDeviation="1.921"/>
<feColorMatrix type="matrix" values="0 0 0 0 0.717647 0 0 0 0 0.717647 0 0 0 0 0.717647 0 0 0 0.08 0"/>
<feBlend mode="normal" in2="BackgroundImageFix" result="effect1_dropShadow_1_6457"/>
<feColorMatrix in="SourceAlpha" type="matrix" values="0 0 0 0 0 0 0 0 0 0 0 0 0 0 0 0 0 0 127 0" result="hardAlpha"/>
<feOffset dy="3.842"/>
<feGaussianBlur stdDeviation="3.842"/>
<feColorMatrix type="matrix" values="0 0 0 0 0.717647 0 0 0 0 0.717647 0 0 0 0 0.717647 0 0 0 0.08 0"/>
<feBlend mode="normal" in2="effect1_dropShadow_1_6457" result="effect2_dropShadow_1_6457"/>
<feBlend mode="normal" in="SourceGraphic" in2="effect2_dropShadow_1_6457" result="shape"/>
</filter>
</defs>
</svg>
