<svg width="57" height="43" viewBox="0 0 57 43" fill="none" xmlns="http://www.w3.org/2000/svg">
<g filter="url(#filter0_dd_1_6459)">
<rect x="8.48584" y="5" width="39.9568" height="25.7414" rx="4.6104" fill="white"/>
<rect x="8.38979" y="4.90395" width="40.1489" height="25.9335" rx="4.70645" stroke="#D6DCE5" stroke-width="0.1921"/>
<path fill-rule="evenodd" clip-rule="evenodd" d="M17.2267 14.1255H14.923C14.7654 14.1255 14.6313 14.24 14.6067 14.3956L13.675 20.3022C13.6565 20.4188 13.7468 20.5238 13.865 20.5238H14.9648C15.1224 20.5238 15.2565 20.4093 15.2811 20.2534L15.5324 18.6603C15.5566 18.5043 15.691 18.3899 15.8484 18.3899H16.5776C18.0951 18.3899 18.9709 17.6556 19.1997 16.2006C19.3027 15.5641 19.2041 15.0639 18.9059 14.7135C18.5785 14.329 17.9977 14.1255 17.2267 14.1255ZM17.4925 16.2828C17.3665 17.1093 16.7349 17.1093 16.1242 17.1093H15.7766L16.0205 15.5656C16.035 15.4724 16.1158 15.4037 16.2101 15.4037H16.3695C16.7855 15.4037 17.1779 15.4037 17.3807 15.6408C17.5015 15.7823 17.5386 15.9924 17.4925 16.2828ZM24.1129 16.2563H23.0098C22.9158 16.2563 22.8345 16.325 22.82 16.4184L22.7713 16.7268L22.6941 16.6151C22.4553 16.2684 21.9228 16.1526 21.3912 16.1526C20.1721 16.1526 19.131 17.0758 18.9282 18.3709C18.8228 19.0168 18.9726 19.6345 19.3391 20.0653C19.6753 20.4613 20.1563 20.6264 20.7286 20.6264C21.7108 20.6264 22.2556 19.9948 22.2556 19.9948L22.2063 20.3014C22.1878 20.4186 22.278 20.5237 22.3956 20.5237H23.3893C23.5474 20.5237 23.6807 20.4091 23.7056 20.2532L24.3019 16.4779C24.3207 16.3618 24.2308 16.2563 24.1129 16.2563ZM22.5752 18.4031C22.4687 19.0333 21.9685 19.4563 21.3306 19.4563C21.0103 19.4563 20.7541 19.3536 20.5898 19.1589C20.4268 18.9657 20.3648 18.6904 20.4167 18.384C20.5161 17.7591 21.0248 17.3224 21.653 17.3224C21.9661 17.3224 22.2208 17.4263 22.3886 17.6227C22.5566 17.8211 22.6233 18.098 22.5752 18.4031ZM28.8796 16.2561H29.9883C30.1435 16.2561 30.2341 16.4302 30.1459 16.5576L26.4588 21.879C26.3991 21.9652 26.3007 22.0165 26.1957 22.0165H25.0884C24.9325 22.0165 24.8415 21.841 24.9318 21.7134L26.0798 20.093L24.8588 16.51C24.8166 16.3855 24.9085 16.2561 25.041 16.2561H26.1303C26.2719 16.2561 26.3967 16.349 26.4376 16.4845L27.0856 18.6485L28.6146 16.3966C28.6745 16.3086 28.7739 16.2561 28.8796 16.2561Z" fill="#253B80"/>
<path fill-rule="evenodd" clip-rule="evenodd" d="M40.8995 20.3017L41.8449 14.287C41.8594 14.1937 41.9403 14.1249 42.0343 14.1246H43.0987C43.2162 14.1246 43.3064 14.23 43.2879 14.3466L42.3556 20.2529C42.3312 20.4087 42.1972 20.5233 42.0393 20.5233H41.0887C40.9712 20.5233 40.8809 20.4182 40.8995 20.3017ZM33.6589 14.1249H31.3549C31.1976 14.1249 31.0635 14.2395 31.0389 14.3951L30.1072 20.3017C30.0886 20.4182 30.1789 20.5233 30.2966 20.5233H31.4788C31.5887 20.5233 31.6827 20.4432 31.6998 20.3341L31.9642 18.6598C31.9885 18.5038 32.1229 18.3894 32.2802 18.3894H33.0091C34.5269 18.3894 35.4025 17.6551 35.6315 16.2001C35.7348 15.5636 35.6355 15.0634 35.3375 14.713C35.0103 14.3285 34.4299 14.1249 33.6589 14.1249ZM33.9247 16.2822C33.7991 17.1088 33.1674 17.1088 32.5564 17.1088H32.2091L32.4533 15.5651C32.4678 15.4719 32.548 15.4032 32.6426 15.4032H32.8019C33.2176 15.4032 33.6105 15.4032 33.8131 15.6402C33.9341 15.7818 33.9709 15.9919 33.9247 16.2822ZM40.5445 16.2558H39.4421C39.3474 16.2558 39.2669 16.3245 39.2527 16.4178L39.204 16.7263L39.1265 16.6145C38.8877 16.2679 38.3555 16.1521 37.8239 16.1521C36.6048 16.1521 35.564 17.0753 35.3612 18.3704C35.2561 19.0162 35.4053 19.6339 35.7718 20.0647C36.1086 20.4608 36.589 20.6258 37.1613 20.6258C38.1435 20.6258 38.6881 19.9943 38.6881 19.9943L38.639 20.3009C38.6205 20.4181 38.7107 20.5231 38.8291 20.5231H39.8223C39.9796 20.5231 40.1137 20.4086 40.1383 20.2527L40.7349 16.4774C40.7531 16.3613 40.6628 16.2558 40.5445 16.2558ZM39.0069 18.4026C38.9011 19.0328 38.4002 19.4558 37.7622 19.4558C37.4425 19.4558 37.1859 19.3531 37.0215 19.1584C36.8584 18.9651 36.7971 18.6899 36.8484 18.3834C36.9483 17.7586 37.4564 17.3219 38.0846 17.3219C38.3979 17.3219 38.6524 17.4258 38.8203 17.6222C38.989 17.8206 39.0557 18.0974 39.0069 18.4026Z" fill="#179BD7"/>
</g>
<defs>
<filter id="filter0_dd_1_6459" x="0.609701" y="0.965861" width="55.7091" height="41.4936" filterUnits="userSpaceOnUse" color-interpolation-filters="sRGB">
<feFlood flood-opacity="0" result="BackgroundImageFix"/>
<feColorMatrix in="SourceAlpha" type="matrix" values="0 0 0 0 0 0 0 0 0 0 0 0 0 0 0 0 0 0 127 0" result="hardAlpha"/>
<feOffset dy="0.3842"/>
<feGaussianBlur stdDeviation="1.921"/>
<feColorMatrix type="matrix" values="0 0 0 0 0.717647 0 0 0 0 0.717647 0 0 0 0 0.717647 0 0 0 0.08 0"/>
<feBlend mode="normal" in2="BackgroundImageFix" result="effect1_dropShadow_1_6459"/>
<feColorMatrix in="SourceAlpha" type="matrix" values="0 0 0 0 0 0 0 0 0 0 0 0 0 0 0 0 0 0 127 0" result="hardAlpha"/>
<feOffset dy="3.842"/>
<feGaussianBlur stdDeviation="3.842"/>
<feColorMatrix type="matrix" values="0 0 0 0 0.717647 0 0 0 0 0.717647 0 0 0 0 0.717647 0 0 0 0.08 0"/>
<feBlend mode="normal" in2="effect1_dropShadow_1_6459" result="effect2_dropShadow_1_6459"/>
<feBlend mode="normal" in="SourceGraphic" in2="effect2_dropShadow_1_6459" result="shape"/>
</filter>
</defs>
</svg>
