<svg aria-hidden="true" style="position: absolute; width: 0; height: 0; overflow: hidden;" version="1.1" xmlns="http://www.w3.org/2000/svg" xmlns:xlink="http://www.w3.org/1999/xlink">
<defs>

<symbol id="icon-dropright" viewBox="0 0 32 32">
<path fill="currentColor" d="M13.061 4.939l10 10c0.14 0.139 0.251 0.305 0.327 0.487s0.115 0.378 0.115 0.575-0.039 0.393-0.115 0.575c-0.076 0.182-0.187 0.348-0.327 0.487l-10 10c-0.282 0.282-0.664 0.44-1.063 0.44s-0.781-0.158-1.063-0.44c-0.282-0.282-0.44-0.664-0.44-1.063s0.158-0.781 0.44-1.062l8.939-8.939-8.94-8.939c-0.282-0.282-0.44-0.664-0.44-1.063s0.158-0.781 0.44-1.063c0.282-0.282 0.664-0.44 1.063-0.44s0.781 0.158 1.063 0.44l0.001 0.003z"></path>
</symbol>

<symbol id="icon-options" viewBox="0 0 31 32">
<path d="M16.8 15.52v11.040c0 0.382-0.152 0.748-0.422 1.018s-0.636 0.422-1.018 0.422c-0.382 0-0.748-0.152-1.018-0.422s-0.422-0.636-0.422-1.018v-11.040c0-0.382 0.152-0.748 0.422-1.018s0.636-0.422 1.018-0.422c0.382 0 0.748 0.152 1.018 0.422s0.422 0.636 0.422 1.018zM24 23.68c-0.382 0-0.748 0.152-1.018 0.422s-0.422 0.636-0.422 1.018v1.44c0 0.382 0.152 0.748 0.422 1.018s0.636 0.422 1.018 0.422c0.382 0 0.748-0.152 1.018-0.422s0.422-0.636 0.422-1.018v-1.44c0-0.382-0.152-0.748-0.422-1.018s-0.636-0.422-1.018-0.422zM26.88 18.88h-1.44v-13.44c0-0.382-0.152-0.748-0.422-1.018s-0.636-0.422-1.018-0.422c-0.382 0-0.748 0.152-1.018 0.422s-0.422 0.636-0.422 1.018v13.44h-1.44c-0.382 0-0.748 0.152-1.018 0.422s-0.422 0.636-0.422 1.018c0 0.382 0.152 0.748 0.422 1.018s0.636 0.422 1.018 0.422h5.76c0.382 0 0.748-0.152 1.018-0.422s0.422-0.636 0.422-1.018c0-0.382-0.152-0.748-0.422-1.018s-0.636-0.422-1.018-0.422zM6.72 19.84c-0.382 0-0.748 0.152-1.018 0.422s-0.422 0.636-0.422 1.018v5.28c0 0.382 0.152 0.748 0.422 1.018s0.636 0.422 1.018 0.422c0.382 0 0.748-0.152 1.018-0.422s0.422-0.636 0.422-1.018v-5.28c0-0.382-0.152-0.748-0.422-1.018s-0.636-0.422-1.018-0.422zM9.6 15.040h-1.44v-9.6c0-0.382-0.152-0.748-0.422-1.018s-0.636-0.422-1.018-0.422c-0.382 0-0.748 0.152-1.018 0.422s-0.422 0.636-0.422 1.018v9.6h-1.44c-0.382 0-0.748 0.152-1.018 0.422s-0.422 0.636-0.422 1.018c0 0.382 0.152 0.748 0.422 1.018s0.636 0.422 1.018 0.422h5.76c0.382 0 0.748-0.152 1.018-0.422s0.422-0.636 0.422-1.018c0-0.382-0.152-0.748-0.422-1.018s-0.636-0.422-1.018-0.422zM18.24 9.28h-1.44v-3.84c0-0.382-0.152-0.748-0.422-1.018s-0.636-0.422-1.018-0.422c-0.382 0-0.748 0.152-1.018 0.422s-0.422 0.636-0.422 1.018v3.84h-1.44c-0.382 0-0.748 0.152-1.018 0.422s-0.422 0.636-0.422 1.018c0 0.382 0.152 0.748 0.422 1.018s0.636 0.422 1.018 0.422h5.76c0.382 0 0.748-0.152 1.018-0.422s0.422-0.636 0.422-1.018c0-0.382-0.152-0.748-0.422-1.018s-0.636-0.422-1.018-0.422z"></path>
</symbol>

<symbol id="icon-user" viewBox="0 0 32 32">
<path d="M16 2.5c-2.67 0-5.28 0.792-7.5 2.275s-3.95 3.592-4.972 6.059c-1.022 2.467-1.289 5.181-0.768 7.8s1.807 5.024 3.695 6.912 4.293 3.174 6.912 3.695c2.619 0.521 5.333 0.253 7.8-0.768s4.575-2.752 6.059-4.972c1.483-2.22 2.275-4.83 2.275-7.5-0.004-3.579-1.428-7.011-3.958-9.542s-5.962-3.954-9.542-3.958zM9.946 24.571c0.696-0.952 1.607-1.727 2.659-2.26s2.215-0.812 3.394-0.812c1.18 0 2.343 0.278 3.394 0.812s1.963 1.308 2.659 2.26c-1.769 1.255-3.885 1.929-6.054 1.929s-4.284-0.674-6.054-1.929zM12.5 15c0-0.692 0.205-1.369 0.59-1.944s0.931-1.024 1.571-1.289c0.639-0.265 1.343-0.334 2.022-0.199s1.303 0.468 1.792 0.958c0.489 0.489 0.823 1.113 0.958 1.792s0.066 1.383-0.199 2.022c-0.265 0.64-0.713 1.186-1.289 1.571s-1.252 0.59-1.945 0.59c-0.928 0-1.819-0.369-2.475-1.025s-1.025-1.547-1.025-2.475zM24.25 22.493c-0.972-1.237-2.211-2.237-3.625-2.928 0.901-0.912 1.512-2.071 1.756-3.329s0.111-2.561-0.384-3.744c-0.494-1.183-1.327-2.193-2.395-2.904s-2.321-1.090-3.603-1.090-2.536 0.379-3.603 1.090c-1.067 0.711-1.9 1.721-2.395 2.904s-0.628 2.486-0.384 3.744c0.244 1.259 0.855 2.417 1.756 3.329-1.414 0.69-2.653 1.691-3.625 2.928-1.221-1.548-1.982-3.409-2.195-5.369s0.13-3.941 0.99-5.715c0.86-1.774 2.203-3.27 3.874-4.317s3.603-1.602 5.575-1.602c1.972 0 3.904 0.555 5.575 1.602s3.013 2.543 3.874 4.317c0.86 1.774 1.203 3.755 0.99 5.715s-0.974 3.821-2.195 5.369h0.013z"></path>
</symbol>

<symbol id="icon-cart" viewBox="0 0 32 32">
<path d="M12.5 27c0 0.494-0.147 0.978-0.421 1.389s-0.665 0.732-1.122 0.921c-0.457 0.189-0.959 0.239-1.444 0.142s-0.93-0.335-1.28-0.684-0.588-0.795-0.684-1.28c-0.096-0.485-0.047-0.988 0.142-1.444s0.51-0.847 0.921-1.122c0.411-0.275 0.894-0.421 1.389-0.421 0.663 0 1.299 0.263 1.768 0.732s0.732 1.105 0.732 1.768zM23 24.5c-0.494 0-0.978 0.147-1.389 0.421s-0.732 0.665-0.921 1.122c-0.189 0.457-0.239 0.959-0.142 1.444s0.335 0.93 0.684 1.28 0.795 0.588 1.28 0.684c0.485 0.096 0.988 0.047 1.444-0.142s0.847-0.51 1.122-0.921c0.275-0.411 0.421-0.895 0.421-1.389 0-0.663-0.263-1.299-0.732-1.768s-1.105-0.732-1.768-0.732zM29.434 9.441l-3.411 11.088c-0.218 0.717-0.661 1.345-1.264 1.79s-1.333 0.684-2.082 0.681h-12.31c-0.76-0.002-1.499-0.251-2.106-0.709s-1.049-1.1-1.26-1.83l-4.274-14.961h-1.226c-0.398 0-0.779-0.158-1.061-0.439s-0.439-0.663-0.439-1.061c0-0.398 0.158-0.779 0.439-1.061s0.663-0.439 1.061-0.439h1.602c0.543 0.002 1.071 0.179 1.504 0.506s0.749 0.786 0.9 1.307l0.911 3.186h21.582c0.235 0 0.466 0.055 0.676 0.161s0.391 0.259 0.531 0.448 0.233 0.408 0.272 0.639c0.039 0.231 0.024 0.469-0.045 0.693zM25.969 10.5h-18.695l2.611 9.137c0.030 0.105 0.093 0.197 0.18 0.262s0.193 0.101 0.301 0.101h12.31c0.107 0 0.211-0.034 0.297-0.097s0.15-0.153 0.181-0.255l2.814-9.147z"></path>
</symbol>

<symbol id="icon-search" viewBox="0 0 32 32">
<path fill="currentColor" d="M29.061 26.939l-5.936-5.939c1.78-2.319 2.611-5.229 2.324-8.139s-1.669-5.601-3.867-7.529c-2.198-1.928-5.047-2.947-7.969-2.852s-5.698 1.299-7.766 3.366-3.271 4.844-3.366 7.766c-0.096 2.922 0.924 5.771 2.852 7.969s4.619 3.581 7.529 3.867c2.91 0.287 5.819-0.544 8.139-2.324l5.941 5.942c0.139 0.14 0.305 0.25 0.487 0.326s0.378 0.114 0.575 0.114 0.393-0.039 0.575-0.114c0.182-0.075 0.348-0.186 0.487-0.326s0.25-0.305 0.326-0.487 0.114-0.378 0.114-0.575c0-0.197-0.039-0.393-0.114-0.575s-0.186-0.348-0.326-0.487l-0.005-0.004zM5.5 14c0-1.681 0.498-3.325 1.433-4.722s2.261-2.487 3.815-3.131c1.553-0.643 3.262-0.812 4.911-0.484s3.163 1.138 4.352 2.326c1.189 1.189 1.998 2.703 2.326 4.352s0.16 3.358-0.484 4.911c-0.643 1.553-1.733 2.881-3.131 3.815s-3.041 1.433-4.722 1.433c-2.254-0.002-4.414-0.899-6.008-2.492s-2.49-3.754-2.492-6.008z"></path>
</symbol>

<symbol id="icon-dropdown" viewBox="0 0 32 32">
<path d="M27.061 13.061l-10 10c-0.139 0.14-0.305 0.251-0.487 0.327s-0.378 0.115-0.575 0.115-0.393-0.039-0.575-0.115c-0.182-0.076-0.348-0.187-0.487-0.327l-10-10c-0.282-0.282-0.44-0.664-0.44-1.063s0.158-0.781 0.44-1.063c0.282-0.282 0.664-0.44 1.063-0.44s0.781 0.158 1.063 0.44l8.939 8.939 8.939-8.94c0.282-0.282 0.664-0.44 1.063-0.44s0.781 0.158 1.062 0.44c0.282 0.282 0.44 0.664 0.44 1.063s-0.158 0.781-0.44 1.063l-0.002 0.001z"></path>
</symbol>

<symbol id="icon-close" viewBox="0 0 32 32">
<path fill="currentColor"  d="M26.061 23.939c0.282 0.282 0.44 0.664 0.44 1.063s-0.158 0.781-0.44 1.062c-0.282 0.282-0.664 0.44-1.062 0.44s-0.781-0.158-1.063-0.44l-7.936-7.939-7.939 7.936c-0.282 0.282-0.664 0.44-1.063 0.44s-0.781-0.158-1.063-0.44c-0.282-0.282-0.44-0.664-0.44-1.063s0.158-0.781 0.44-1.062l7.939-7.936-7.936-7.939c-0.282-0.282-0.44-0.664-0.44-1.063s0.158-0.781 0.44-1.063c0.282-0.282 0.664-0.44 1.063-0.44s0.781 0.158 1.062 0.44l7.936 7.939 7.939-7.94c0.282-0.282 0.664-0.44 1.062-0.44s0.781 0.158 1.063 0.44 0.44 0.664 0.44 1.063c0 0.399-0.158 0.781-0.44 1.062l-7.939 7.94 7.936 7.939z"></path>
</symbol>

<symbol id="icon-star-half" viewBox="0 0 17 32">
<path fill="#ffc633" style="fill: var(--color2, #ffc633)" d="M6.591 31.099l10.105-5.622v-25.477l-4.87 10.488-11.479 1.391 8.469 7.873-2.224 11.347z"></path>
</symbol>

<symbol id="icon-star" viewBox="0 0 35 32">
<path fill="#ffc633" style="fill: var(--color2, #ffc633)" d="M17.191 0l4.871 10.488 11.479 1.391-8.469 7.873 2.224 11.347-10.105-5.622-10.105 5.622 2.224-11.347-8.469-7.873 11.479-1.391 4.87-10.488z"></path>
</symbol>

<symbol id="icon-plus" viewBox="0 0 32 32">
<path d="M28.5 16c0 0.398-0.158 0.779-0.439 1.061s-0.663 0.439-1.061 0.439h-9.5v9.5c0 0.398-0.158 0.779-0.439 1.061s-0.663 0.439-1.061 0.439c-0.398 0-0.779-0.158-1.061-0.439s-0.439-0.663-0.439-1.061v-9.5h-9.5c-0.398 0-0.779-0.158-1.061-0.439s-0.439-0.663-0.439-1.061c0-0.398 0.158-0.779 0.439-1.061s0.663-0.439 1.061-0.439h9.5v-9.5c0-0.398 0.158-0.779 0.439-1.061s0.663-0.439 1.061-0.439c0.398 0 0.779 0.158 1.061 0.439s0.439 0.663 0.439 1.061v9.5h9.5c0.398 0 0.779 0.158 1.061 0.439s0.439 0.663 0.439 1.061z"></path>
</symbol>

<symbol id="icon-minus" viewBox="0 0 32 32">
<path d="M28.5 16c0 0.398-0.158 0.779-0.439 1.061s-0.663 0.439-1.061 0.439h-22c-0.398 0-0.779-0.158-1.061-0.439s-0.439-0.663-0.439-1.061c0-0.398 0.158-0.779 0.439-1.061s0.663-0.439 1.061-0.439h22c0.398 0 0.779 0.158 1.061 0.439s0.439 0.663 0.439 1.061z"></path>
</symbol>

<symbol id="icon-burger" viewBox="0 0 32 32">
<path d="M28.5 16c0 0.398-0.158 0.779-0.439 1.061s-0.663 0.439-1.061 0.439h-22c-0.398 0-0.779-0.158-1.061-0.439s-0.439-0.663-0.439-1.061c0-0.398 0.158-0.779 0.439-1.061s0.663-0.439 1.061-0.439h22c0.398 0 0.779 0.158 1.061 0.439s0.439 0.663 0.439 1.061zM5 9.5h22c0.398 0 0.779-0.158 1.061-0.439s0.439-0.663 0.439-1.061c0-0.398-0.158-0.779-0.439-1.061s-0.663-0.439-1.061-0.439h-22c-0.398 0-0.779 0.158-1.061 0.439s-0.439 0.663-0.439 1.061c0 0.398 0.158 0.779 0.439 1.061s0.663 0.439 1.061 0.439zM27 22.5h-22c-0.398 0-0.779 0.158-1.061 0.439s-0.439 0.663-0.439 1.061c0 0.398 0.158 0.779 0.439 1.061s0.663 0.439 1.061 0.439h22c0.398 0 0.779-0.158 1.061-0.439s0.439-0.663 0.439-1.061c0-0.398-0.158-0.779-0.439-1.061s-0.663-0.439-1.061-0.439z"></path>
</symbol>

<symbol id="icon-google-pay" viewBox="0 0 43 32">
<path fill="#fff" style="fill: var(--color1, #fff)" d="M9.689 3.265h23.417c1.94 0 3.513 1.573 3.513 3.513v12.587c0 1.94-1.573 3.513-3.513 3.513h-23.417c-1.94 0-3.513-1.573-3.513-3.513v-12.587c0-1.94 1.573-3.513 3.513-3.513z"></path>
<path fill="#3c4043" style="fill: var(--color3, #3c4043)" d="M20.735 15.421h-0.685v-5.328h1.815c0.46 0 0.852 0.153 1.173 0.46 0.328 0.307 0.492 0.681 0.492 1.123 0 0.453-0.164 0.827-0.492 1.13-0.317 0.303-0.71 0.453-1.173 0.453h-1.13v2.161zM20.735 10.75v1.858h1.145c0.271 0 0.499-0.093 0.678-0.275 0.182-0.182 0.275-0.403 0.275-0.653 0-0.246-0.093-0.464-0.275-0.646-0.178-0.189-0.403-0.282-0.678-0.282h-1.145v-0.004z"></path>
<path fill="#3c4043" style="fill: var(--color3, #3c4043)" d="M25.321 11.656c0.506 0 0.906 0.136 1.198 0.407s0.439 0.642 0.439 1.113v2.247h-0.653v-0.506h-0.029c-0.282 0.417-0.66 0.624-1.13 0.624-0.403 0-0.738-0.118-1.009-0.357s-0.407-0.535-0.407-0.892c0-0.378 0.143-0.678 0.428-0.899 0.285-0.225 0.667-0.335 1.141-0.335 0.407 0 0.742 0.075 1.002 0.225v-0.157c0-0.239-0.093-0.439-0.282-0.606s-0.41-0.25-0.663-0.25c-0.382 0-0.685 0.16-0.906 0.485l-0.603-0.378c0.332-0.481 0.824-0.72 1.473-0.72zM24.437 14.302c0 0.178 0.075 0.328 0.228 0.446 0.15 0.118 0.328 0.178 0.531 0.178 0.289 0 0.546-0.107 0.77-0.321s0.339-0.464 0.339-0.752c-0.214-0.168-0.51-0.253-0.892-0.253-0.278 0-0.51 0.068-0.695 0.2-0.189 0.139-0.282 0.307-0.282 0.503z"></path>
<path fill="#3c4043" style="fill: var(--color3, #3c4043)" d="M30.681 11.773l-2.282 5.249h-0.706l0.849-1.837-1.505-3.413h0.745l1.084 2.618h0.014l1.056-2.618h0.745z"></path>
<path fill="#4285f4" style="fill: var(--color4, #4285f4)" d="M18.012 12.829c0-0.223-0.020-0.437-0.057-0.642h-2.87v1.177l1.653 0c-0.067 0.392-0.283 0.725-0.613 0.948v0.764h0.984c0.575-0.532 0.904-1.318 0.904-2.246z"></path>
<path fill="#34a853" style="fill: var(--color5, #34a853)" d="M16.125 14.312c-0.274 0.185-0.627 0.293-1.039 0.293-0.797 0-1.473-0.537-1.715-1.261h-1.015v0.787c0.503 0.998 1.536 1.682 2.73 1.682 0.825 0 1.518-0.271 2.023-0.739l-0.984-0.763z"></path>
<path fill="#fabb05" style="fill: var(--color6, #fabb05)" d="M13.274 12.759c0-0.203 0.034-0.4 0.096-0.585v-0.787h-1.015c-0.208 0.413-0.325 0.878-0.325 1.372s0.117 0.959 0.325 1.372l1.015-0.787c-0.062-0.185-0.096-0.381-0.096-0.585z"></path>
<path fill="#e94235" style="fill: var(--color7, #e94235)" d="M15.085 10.914c0.45 0 0.854 0.155 1.172 0.458l0.872-0.871c-0.53-0.493-1.22-0.796-2.044-0.796-1.194 0-2.227 0.685-2.73 1.682l1.015 0.787c0.242-0.724 0.918-1.261 1.715-1.261z"></path>
</symbol>

<symbol id="icon-apple-pay" viewBox="0 0 43 32">
<path fill="#fff" style="fill: var(--color1, #fff)" d="M9.94 3.265h23.417c1.94 0 3.513 1.573 3.513 3.513v12.587c0 1.94-1.573 3.513-3.513 3.513h-23.417c-1.94 0-3.513-1.573-3.513-3.513v-12.587c0-1.94 1.573-3.513 3.513-3.513z"></path>
<path fill="#000008" style="fill: var(--color8, #000008)" d="M16.274 10.502c0.203-0.254 0.341-0.595 0.305-0.944-0.297 0.015-0.66 0.196-0.87 0.45-0.189 0.218-0.356 0.573-0.312 0.907 0.334 0.029 0.667-0.167 0.878-0.414z"></path>
<path fill="#000008" style="fill: var(--color8, #000008)" d="M16.575 10.981c-0.485-0.029-0.897 0.275-1.128 0.275s-0.586-0.261-0.969-0.253c-0.499 0.007-0.962 0.289-1.215 0.738-0.521 0.898-0.137 2.229 0.369 2.96 0.246 0.362 0.542 0.76 0.933 0.746 0.369-0.014 0.514-0.239 0.962-0.239s0.578 0.239 0.969 0.232c0.405-0.007 0.658-0.362 0.904-0.724 0.282-0.412 0.398-0.81 0.405-0.832-0.007-0.007-0.781-0.304-0.788-1.194-0.007-0.745 0.608-1.1 0.636-1.122-0.347-0.514-0.89-0.571-1.078-0.586z"></path>
<path fill="#000008" style="fill: var(--color8, #000008)" d="M20.795 9.972c1.053 0 1.787 0.726 1.787 1.783 0 1.061-0.749 1.791-1.813 1.791h-1.166v1.855h-0.843v-5.429h2.035zM19.602 12.839h0.967c0.734 0 1.151-0.395 1.151-1.080s-0.418-1.076-1.148-1.076h-0.971v2.156z"></path>
<path fill="#000008" style="fill: var(--color8, #000008)" d="M22.802 14.277c0-0.692 0.53-1.117 1.471-1.17l1.084-0.064v-0.305c0-0.44-0.297-0.704-0.794-0.704-0.47 0-0.764 0.226-0.835 0.579h-0.767c0.045-0.715 0.655-1.242 1.633-1.242 0.959 0 1.573 0.508 1.573 1.302v2.728h-0.779v-0.651h-0.019c-0.23 0.44-0.73 0.719-1.249 0.719-0.775 0-1.317-0.482-1.317-1.193zM25.357 13.919v-0.312l-0.974 0.060c-0.485 0.034-0.76 0.248-0.76 0.587 0 0.346 0.286 0.572 0.722 0.572 0.568 0 1.012-0.391 1.012-0.907z"></path>
<path fill="#000008" style="fill: var(--color8, #000008)" d="M26.901 16.857v-0.658c0.060 0.015 0.196 0.015 0.263 0.015 0.376 0 0.579-0.158 0.703-0.564 0-0.008 0.072-0.241 0.072-0.245l-1.43-3.962h0.88l1.001 3.221h0.015l1.001-3.221h0.858l-1.482 4.165c-0.338 0.959-0.73 1.268-1.55 1.268-0.068 0-0.271-0.008-0.331-0.019z"></path>
</symbol>

<symbol id="icon-pay-pal" viewBox="0 0 43 32">
<path fill="#fff" style="fill: var(--color1, #fff)" d="M9.539 3.265h23.417c1.94 0 3.513 1.573 3.513 3.513v12.587c0 1.94-1.573 3.513-3.513 3.513h-23.417c-1.94 0-3.513-1.573-3.513-3.513v-12.587c0-1.94 1.573-3.513 3.513-3.513z"></path>
<path fill="#253b80" style="fill: var(--color9, #253b80)" d="M12.686 10.218h-1.755c-0.12 0-0.222 0.087-0.241 0.206l-0.71 4.5c-0.014 0.089 0.055 0.169 0.145 0.169h0.838c0.12 0 0.222-0.087 0.241-0.206l0.191-1.214c0.018-0.119 0.121-0.206 0.241-0.206h0.556c1.156 0 1.823-0.559 1.998-1.668 0.079-0.485 0.003-0.866-0.224-1.133-0.249-0.293-0.692-0.448-1.279-0.448zM12.889 11.861c-0.096 0.63-0.577 0.63-1.042 0.63h-0.265l0.186-1.176c0.011-0.071 0.073-0.123 0.144-0.123h0.121c0.317 0 0.616 0 0.77 0.181 0.092 0.108 0.12 0.268 0.085 0.489zM17.933 11.841h-0.84c-0.072 0-0.134 0.052-0.145 0.123l-0.037 0.235-0.059-0.085c-0.182-0.264-0.588-0.352-0.993-0.352-0.929 0-1.722 0.703-1.877 1.69-0.080 0.492 0.034 0.963 0.313 1.291 0.256 0.302 0.623 0.428 1.059 0.428 0.748 0 1.163-0.481 1.163-0.481l-0.038 0.234c-0.014 0.089 0.055 0.169 0.144 0.169h0.757c0.12 0 0.222-0.087 0.241-0.206l0.454-2.876c0.014-0.088-0.054-0.169-0.144-0.169zM16.761 13.477c-0.081 0.48-0.462 0.802-0.948 0.802-0.244 0-0.439-0.078-0.564-0.227-0.124-0.147-0.171-0.357-0.132-0.59 0.076-0.476 0.463-0.809 0.942-0.809 0.239 0 0.433 0.079 0.56 0.229 0.128 0.151 0.179 0.362 0.142 0.595zM21.564 11.841h0.845c0.118 0 0.187 0.133 0.12 0.23l-2.809 4.054c-0.046 0.066-0.12 0.105-0.201 0.105h-0.844c-0.119 0-0.188-0.134-0.119-0.231l0.875-1.235-0.93-2.73c-0.032-0.095 0.038-0.193 0.139-0.193h0.83c0.108 0 0.203 0.071 0.234 0.174l0.494 1.649 1.165-1.716c0.046-0.067 0.121-0.107 0.202-0.107z"></path>
<path fill="#179bd7" style="fill: var(--color10, #179bd7)" d="M30.722 14.923l0.72-4.582c0.011-0.071 0.073-0.123 0.144-0.124h0.811c0.090 0 0.158 0.080 0.144 0.169l-0.71 4.5c-0.018 0.119-0.121 0.206-0.241 0.206h-0.724c-0.090 0-0.158-0.080-0.144-0.169zM25.205 10.217h-1.755c-0.12 0-0.222 0.087-0.241 0.206l-0.71 4.5c-0.014 0.089 0.055 0.169 0.144 0.169h0.901c0.084 0 0.155-0.061 0.168-0.144l0.201-1.276c0.018-0.119 0.121-0.206 0.241-0.206h0.555c1.156 0 1.823-0.559 1.998-1.668 0.079-0.485 0.003-0.866-0.224-1.133-0.249-0.293-0.691-0.448-1.279-0.448zM25.408 11.861c-0.096 0.63-0.577 0.63-1.042 0.63h-0.265l0.186-1.176c0.011-0.071 0.072-0.123 0.144-0.123h0.121c0.317 0 0.616 0 0.77 0.181 0.092 0.108 0.12 0.268 0.085 0.489zM30.451 11.841h-0.84c-0.072 0-0.134 0.052-0.144 0.123l-0.037 0.235-0.059-0.085c-0.182-0.264-0.587-0.352-0.992-0.352-0.929 0-1.722 0.703-1.876 1.69-0.080 0.492 0.034 0.963 0.313 1.291 0.257 0.302 0.623 0.428 1.059 0.428 0.748 0 1.163-0.481 1.163-0.481l-0.037 0.234c-0.014 0.089 0.055 0.169 0.145 0.169h0.757c0.12 0 0.222-0.087 0.241-0.206l0.455-2.876c0.014-0.088-0.055-0.169-0.145-0.169zM29.28 13.476c-0.081 0.48-0.462 0.802-0.948 0.802-0.244 0-0.439-0.078-0.564-0.227-0.124-0.147-0.171-0.357-0.132-0.59 0.076-0.476 0.463-0.809 0.942-0.809 0.239 0 0.433 0.079 0.561 0.229 0.128 0.151 0.179 0.362 0.142 0.595z"></path>
</symbol>

<symbol id="icon-mastercard" viewBox="0 0 43 32">
<path fill="#fff" style="fill: var(--color1, #fff)" d="M9.791 3.265h23.417c1.94 0 3.513 1.573 3.513 3.513v12.587c0 1.94-1.573 3.513-3.513 3.513h-23.417c-1.94 0-3.513-1.573-3.513-3.513v-12.587c0-1.94 1.573-3.513 3.513-3.513z"></path>
<path fill="#ff5f00" style="fill: var(--color11, #ff5f00)" d="M23.686 9.044h-4.482v8.055h4.482v-8.055z"></path>
<path fill="#eb001b" style="fill: var(--color12, #eb001b)" d="M19.489 13.071c-0.001-0.776 0.175-1.541 0.514-2.239s0.832-1.309 1.442-1.788c-0.756-0.594-1.663-0.963-2.619-1.066s-1.921 0.066-2.785 0.486c-0.864 0.42-1.593 1.075-2.103 1.89s-0.78 1.757-0.78 2.718c0 0.961 0.27 1.903 0.78 2.718s1.239 1.47 2.103 1.89c0.865 0.42 1.83 0.588 2.785 0.486s1.863-0.472 2.619-1.066c-0.61-0.479-1.103-1.090-1.442-1.788s-0.515-1.463-0.514-2.239z"></path>
<path fill="#f79e1b" style="fill: var(--color13, #f79e1b)" d="M29.733 13.071c0 0.961-0.27 1.903-0.78 2.718s-1.239 1.47-2.103 1.89c-0.865 0.42-1.83 0.588-2.785 0.486s-1.863-0.472-2.619-1.066c0.61-0.479 1.103-1.091 1.441-1.789s0.515-1.463 0.515-2.239c0-0.776-0.176-1.541-0.515-2.239s-0.832-1.309-1.441-1.789c0.756-0.594 1.663-0.963 2.619-1.066s1.921 0.066 2.785 0.486c0.864 0.42 1.593 1.075 2.103 1.89s0.78 1.757 0.78 2.718z"></path>
<path fill="#f79e1b" style="fill: var(--color13, #f79e1b)" d="M29.244 16.245v-0.165h0.066v-0.034h-0.169v0.034h0.067v0.165h0.036zM29.573 16.245v-0.199h-0.052l-0.060 0.137-0.060-0.137h-0.052v0.199h0.037v-0.15l0.056 0.129h0.038l0.056-0.13v0.15h0.037z"></path>
</symbol>

<symbol id="icon-visa" viewBox="0 0 43 32">
<path fill="#fff" style="fill: var(--color1, #fff)" d="M10.043 3.265h23.417c1.94 0 3.513 1.573 3.513 3.513v12.587c0 1.94-1.573 3.513-3.513 3.513h-23.417c-1.94 0-3.513-1.573-3.513-3.513v-12.587c0-1.94 1.573-3.513 3.513-3.513z"></path>
<path fill="#1434cb" style="fill: var(--color14, #1434cb)" d="M21.566 9.875l-1.42 6.637h-1.717l1.42-6.637h1.717zM28.79 14.161l0.904-2.493 0.52 2.493h-1.424zM30.705 16.513h1.588l-1.386-6.637h-1.466c-0.329 0-0.607 0.192-0.731 0.487l-2.576 6.15h1.803l0.358-0.991h2.203l0.207 0.991zM26.224 14.345c0.007-1.752-2.423-1.848-2.406-2.631 0.005-0.238 0.232-0.491 0.728-0.556 0.246-0.032 0.924-0.057 1.693 0.297l0.301-1.408c-0.413-0.15-0.945-0.294-1.606-0.294-1.697 0-2.892 0.902-2.902 2.194-0.011 0.955 0.853 1.489 1.503 1.806 0.669 0.325 0.894 0.534 0.891 0.825-0.004 0.446-0.534 0.642-1.027 0.65-0.863 0.014-1.364-0.233-1.764-0.419l-0.311 1.454c0.401 0.184 1.142 0.344 1.91 0.353 1.803 0 2.983-0.891 2.989-2.271zM19.112 9.875l-2.782 6.637h-1.815l-1.369-5.297c-0.083-0.326-0.155-0.446-0.408-0.583-0.412-0.224-1.094-0.434-1.694-0.564l0.041-0.193h2.922c0.372 0 0.707 0.248 0.792 0.677l0.723 3.841 1.787-4.518h1.804z"></path>
</symbol>

<symbol id="icon-socials" viewBox="0 0 169 32">
<path fill="#fff" style="fill: var(--color1, #fff)" d="M32 16c0 8.837-7.163 16-16 16s-16-7.163-16-16c0-8.837 7.163-16 16-16s16 7.163 16 16z"></path>
<path fill="none" stroke="#000" style="stroke: var(--color15, #000)" stroke-linejoin="miter" stroke-linecap="butt" stroke-miterlimit="4" stroke-width="1.1429" d="M31.429 16c0 8.521-6.908 15.429-15.429 15.429s-15.429-6.908-15.429-15.429c0-8.521 6.908-15.429 15.429-15.429s15.429 6.908 15.429 15.429z"></path>
<path fill="#000" style="fill: var(--color15, #000)" d="M23.094 12.552c-0.479 0.213-0.984 0.346-1.516 0.426 0.532-0.319 0.958-0.825 1.144-1.437-0.506 0.293-1.064 0.505-1.676 0.639-0.479-0.505-1.171-0.825-1.915-0.825-1.437 0-2.607 1.171-2.607 2.607 0 0.213 0.027 0.399 0.080 0.585-2.155-0.106-4.097-1.144-5.401-2.74-0.213 0.399-0.346 0.825-0.346 1.304 0 0.904 0.452 1.703 1.171 2.181-0.426-0.027-0.825-0.133-1.197-0.319v0.027c0 1.277 0.905 2.341 2.102 2.581-0.213 0.053-0.452 0.080-0.692 0.080-0.16 0-0.346-0.027-0.505-0.053 0.346 1.038 1.304 1.809 2.448 1.809-0.905 0.692-2.022 1.117-3.246 1.117-0.213 0-0.426 0-0.612-0.027 1.171 0.745 2.527 1.171 4.017 1.171 4.815 0 7.449-3.991 7.449-7.449 0-0.106 0-0.239 0-0.346 0.506-0.346 0.958-0.798 1.304-1.33z"></path>
<path fill="#000" style="fill: var(--color15, #000)" d="M77.714 16c0 8.837-7.163 16-16 16s-16-7.163-16-16c0-8.837 7.163-16 16-16s16 7.163 16 16z"></path>
<path fill="#fff" style="fill: var(--color1, #fff)" d="M60.239 23.204v-6.347h-2.136v-2.474h2.136v-1.824c0-2.117 1.293-3.27 3.181-3.27 0.905 0 1.682 0.067 1.909 0.097v2.212l-1.31 0.001c-1.027 0-1.226 0.488-1.226 1.204v1.579h2.449l-0.319 2.474h-2.13v6.347h-2.554z"></path>
<path fill="#fff" style="fill: var(--color1, #fff)" d="M123.429 16c0 8.837-7.163 16-16 16s-16-7.163-16-16c0-8.837 7.163-16 16-16s16 7.163 16 16z"></path>
<path fill="none" stroke="#000" style="stroke: var(--color15, #000)" stroke-linejoin="miter" stroke-linecap="butt" stroke-miterlimit="4" stroke-width="1.1429" d="M122.857 16c0 8.521-6.908 15.429-15.429 15.429s-15.429-6.908-15.429-15.429c0-8.521 6.908-15.429 15.429-15.429s15.429 6.908 15.429 15.429z"></path>
<path fill="#000" style="fill: var(--color15, #000)" d="M107.43 9.654c2.067 0 2.312 0.008 3.128 0.045 0.491 0.006 0.977 0.096 1.438 0.267 0.334 0.129 0.637 0.326 0.89 0.579s0.45 0.556 0.579 0.89c0.17 0.46 0.261 0.947 0.267 1.438 0.037 0.817 0.045 1.061 0.045 3.128s-0.008 2.312-0.045 3.128c-0.006 0.491-0.096 0.977-0.267 1.438-0.129 0.334-0.326 0.637-0.579 0.89s-0.556 0.45-0.89 0.579c-0.46 0.17-0.947 0.26-1.438 0.267-0.816 0.037-1.061 0.045-3.128 0.045s-2.312-0.008-3.129-0.045c-0.491-0.006-0.977-0.096-1.438-0.267-0.334-0.129-0.637-0.326-0.89-0.579s-0.45-0.556-0.579-0.89c-0.17-0.461-0.261-0.947-0.267-1.438-0.037-0.817-0.045-1.061-0.045-3.128s0.008-2.312 0.045-3.128c0.006-0.491 0.096-0.977 0.267-1.438 0.129-0.334 0.326-0.637 0.579-0.89s0.556-0.45 0.89-0.579c0.46-0.17 0.947-0.261 1.438-0.267 0.817-0.037 1.061-0.045 3.129-0.045zM107.43 8.259c-2.102 0-2.366 0.009-3.192 0.046-0.643 0.013-1.278 0.134-1.88 0.36-0.516 0.195-0.984 0.499-1.37 0.893-0.394 0.386-0.699 0.854-0.894 1.371-0.225 0.602-0.347 1.238-0.36 1.88-0.037 0.825-0.046 1.090-0.046 3.191s0.009 2.366 0.046 3.192c0.013 0.642 0.134 1.278 0.36 1.88 0.195 0.517 0.499 0.984 0.893 1.371 0.386 0.394 0.854 0.699 1.371 0.893 0.602 0.225 1.238 0.347 1.88 0.36 0.826 0.037 1.089 0.047 3.192 0.047s2.366-0.009 3.192-0.047c0.642-0.013 1.278-0.134 1.88-0.36 0.514-0.199 0.981-0.504 1.371-0.894s0.694-0.857 0.893-1.371c0.225-0.602 0.347-1.238 0.36-1.88 0.037-0.825 0.046-1.090 0.046-3.191s-0.009-2.366-0.047-3.192c-0.013-0.643-0.134-1.278-0.36-1.88-0.194-0.517-0.499-0.985-0.893-1.371-0.387-0.394-0.855-0.699-1.371-0.893-0.602-0.225-1.238-0.347-1.88-0.36-0.825-0.037-1.090-0.046-3.191-0.046z"></path>
<path fill="#000" style="fill: var(--color15, #000)" d="M107.431 12.027c-0.786 0-1.555 0.233-2.209 0.67s-1.163 1.058-1.464 1.784c-0.301 0.726-0.38 1.526-0.226 2.297s0.532 1.48 1.088 2.036c0.556 0.556 1.264 0.935 2.036 1.088s1.57 0.075 2.297-0.226c0.726-0.301 1.347-0.811 1.784-1.464s0.67-1.422 0.67-2.209c0-1.054-0.419-2.066-1.164-2.811s-1.757-1.164-2.811-1.164zM107.431 18.583c-0.51 0-1.009-0.151-1.434-0.435s-0.755-0.687-0.95-1.158-0.246-0.991-0.147-1.491c0.1-0.501 0.345-0.96 0.706-1.321s0.821-0.607 1.321-0.706c0.501-0.1 1.020-0.048 1.491 0.147s0.874 0.526 1.158 0.95c0.284 0.424 0.435 0.923 0.435 1.434 0 0.684-0.272 1.341-0.756 1.825s-1.14 0.756-1.825 0.756z"></path>
<path fill="#000" style="fill: var(--color15, #000)" d="M111.563 12.798c0.513 0 0.929-0.416 0.929-0.929s-0.416-0.929-0.929-0.929c-0.513 0-0.929 0.416-0.929 0.929s0.416 0.929 0.929 0.929z"></path>
<path fill="#fff" style="fill: var(--color1, #fff)" d="M169.143 16c0 8.837-7.163 16-16 16s-16-7.163-16-16c0-8.837 7.163-16 16-16s16 7.163 16 16z"></path>
<path fill="none" stroke="#000" style="stroke: var(--color15, #000)" stroke-linejoin="miter" stroke-linecap="butt" stroke-miterlimit="4" stroke-width="1.1429" d="M168.571 16c0 8.521-6.908 15.429-15.429 15.429s-15.429-6.908-15.429-15.429c0-8.521 6.908-15.429 15.429-15.429s15.429 6.908 15.429 15.429z"></path>
<path fill="#000" style="fill: var(--color15, #000)" d="M153.837 8.259c-4.104 0-7.406 3.302-7.406 7.406 0 3.271 2.129 6.048 5.061 7.035 0.37 0.062 0.494-0.154 0.494-0.37 0-0.185 0-0.648 0-1.265-2.067 0.463-2.499-0.987-2.499-0.987-0.339-0.864-0.833-1.080-0.833-1.080-0.679-0.463 0.062-0.463 0.062-0.463 0.741 0.062 1.142 0.771 1.142 0.771 0.648 1.142 1.728 0.802 2.16 0.617 0.062-0.494 0.247-0.802 0.463-0.987-1.635-0.185-3.363-0.833-3.363-3.672 0-0.802 0.278-1.481 0.771-1.975-0.062-0.185-0.339-0.926 0.062-1.975 0 0 0.617-0.185 2.037 0.771 0.586-0.154 1.234-0.247 1.851-0.247s1.265 0.093 1.851 0.247c1.419-0.957 2.037-0.771 2.037-0.771 0.401 1.018 0.154 1.759 0.062 1.975 0.463 0.525 0.771 1.173 0.771 1.975 0 2.839-1.728 3.456-3.394 3.641 0.278 0.216 0.494 0.679 0.494 1.358 0 0.987 0 1.79 0 2.037 0 0.185 0.123 0.432 0.525 0.37 2.931-0.957 5.061-3.734 5.061-7.004 0-4.104-3.302-7.406-7.406-7.406z"></path>
</symbol>

<symbol id="icon-email" viewBox="0 0 32 32">
<path d="M28 5.5h-24c-0.398 0-0.779 0.158-1.061 0.439s-0.439 0.663-0.439 1.061v17c0 0.663 0.263 1.299 0.732 1.768s1.105 0.732 1.768 0.732h22c0.663 0 1.299-0.263 1.768-0.732s0.732-1.105 0.732-1.768v-17c0-0.398-0.158-0.779-0.439-1.061s-0.663-0.439-1.061-0.439zM16 15.965l-8.144-7.465h16.287l-8.144 7.465zM11.599 16l-6.099 5.59v-11.18l6.099 5.59zM13.819 18.035l1.167 1.071c0.277 0.254 0.638 0.394 1.014 0.394s0.737-0.141 1.014-0.394l1.167-1.071 5.963 5.465h-16.287l5.963-5.465zM20.401 16l6.099-5.59v11.18l-6.099-5.59z" fill-opacity="0.4"></path>
</symbol>

<symbol id="icon-dropup" viewBox="0 0 30 32">
<path d="M4.648 18.766l9.412-9.412c0.131-0.132 0.287-0.236 0.459-0.307s0.356-0.108 0.541-0.108c0.186 0 0.37 0.037 0.541 0.108s0.327 0.176 0.459 0.307l9.412 9.412c0.265 0.265 0.414 0.625 0.414 1s-0.149 0.735-0.414 1c-0.265 0.265-0.625 0.414-1 0.414s-0.735-0.149-1-0.414l-8.413-8.413-8.413 8.414c-0.265 0.265-0.625 0.414-1 0.414s-0.735-0.149-1-0.414c-0.265-0.265-0.414-0.625-0.414-1s0.149-0.735 0.414-1l0.002-0.001z"></path>
</symbol>

<symbol id="left-arrow" viewBox="0 0 32 32">
<path d="M12.586 27.414l-10-10c-0.781-0.781-0.781-2.047 0-2.828l10-10c0.781-0.781 2.047-0.781 2.828 0s0.781 2.047 0 2.828l-6.586 6.586h19.172c1.105 0 2 0.895 2 2s-0.895 2-2 2h-19.172l6.586 6.586c0.39 0.39 0.586 0.902 0.586 1.414s-0.195 1.024-0.586 1.414c-0.781 0.781-2.047 0.781-2.828 0z"></path>
</symbol>

<symbol id="right-arrow" viewBox="0 0 32 32">
<path d="M19.414 27.414l10-10c0.781-0.781 0.781-2.047 0-2.828l-10-10c-0.781-0.781-2.047-0.781-2.828 0s-0.781 2.047 0 2.828l6.586 6.586h-19.172c-1.105 0-2 0.895-2 2s0.895 2 2 2h19.172l-6.586 6.586c-0.39 0.39-0.586 0.902-0.586 1.414s0.195 1.024 0.586 1.414c0.781 0.781 2.047 0.781 2.828 0z"></path>
</symbol>

<symbol id="icon-circle-black" viewBox="0 0 32 32">
<path d="M32 16c0 8.837-7.163 16-16 16s-16-7.163-16-16c0-8.837 7.163-16 16-16s16 7.163 16 16z"></path>
</symbol>

<symbol id="icon-circle-white" viewBox="0 0 33 32">
<path fill="#fff" style="fill: var(--color1, #fff)" d="M32.432 16c0 8.837-7.163 16-16 16s-16-7.163-16-16c0-8.837 7.163-16 16-16s16 7.163 16 16z"></path>
</symbol>

<symbol id="icon-circle-pink" viewBox="0 0 32 32">
<path fill="#f506a4" style="fill: var(--color3, #f506a4)" d="M32 16c0 8.837-7.163 16-16 16s-16-7.163-16-16c0-8.837 7.163-16 16-16s16 7.163 16 16z"></path>
</symbol>

<symbol id="icon-circle-purple" viewBox="0 0 33 32">
<path fill="#7d06f5" style="fill: var(--color4, #7d06f5)" d="M32.432 16c0 8.837-7.163 16-16 16s-16-7.163-16-16c0-8.837 7.163-16 16-16s16 7.163 16 16z"></path>
</symbol>

<symbol id="icon-circle-blue" viewBox="0 0 32 32">
<path fill="#063af5" style="fill: var(--color5, #063af5)" d="M32 16c0 8.837-7.163 16-16 16s-16-7.163-16-16c0-8.837 7.163-16 16-16s16 7.163 16 16z"></path>
</symbol>

<symbol id="icon-circle-aqua" viewBox="0 0 32 32">
<path fill="#06caf5" style="fill: var(--color6, #06caf5)" d="M32 16c0 8.837-7.163 16-16 16s-16-7.163-16-16c0-8.837 7.163-16 16-16s16 7.163 16 16z"></path>
</symbol>

<symbol id="icon-circle-orange" viewBox="0 0 33 32">
<path fill="#f57906" style="fill: var(--color7, #f57906)" d="M32.432 16c0 8.837-7.163 16-16 16s-16-7.163-16-16c0-8.837 7.163-16 16-16s16 7.163 16 16z"></path>
</symbol>

<symbol id="icon-circle-yellow" viewBox="0 0 32 32">
<path fill="#f5dd06" style="fill: var(--color8, #f5dd06)" d="M32 16c0 8.837-7.163 16-16 16s-16-7.163-16-16c0-8.837 7.163-16 16-16s16 7.163 16 16z"></path>
</symbol>

<symbol id="icon-circle-red" viewBox="0 0 33 32">
<path fill="#f50606" style="fill: var(--color9, #f50606)" d="M32.432 16c0 8.837-7.163 16-16 16s-16-7.163-16-16c0-8.837 7.163-16 16-16s16 7.163 16 16z"></path>
</symbol>

<symbol id="icon-circle-green" viewBox="0 0 32 32">
<path fill="#00c12b" style="fill: var(--color10, #00c12b)" d="M32 16c0 8.837-7.163 16-16 16s-16-7.163-16-16c0-8.837 7.163-16 16-16s16 7.163 16 16z"></path>
</symbol>

</defs>
</svg>
